<svg xmlns="http://www.w3.org/2000/svg" width="36.765" height="41.13" viewBox="0 0 36.765 41.13">
  <path id="Icon_awesome-bell" data-name="Icon awesome-bell" d="M18.383,41.13a5.2,5.2,0,0,0,5.25-5.141h-10.5A5.2,5.2,0,0,0,18.383,41.13ZM36.058,29.1c-1.585-1.668-4.552-4.176-4.552-12.395a12.76,12.76,0,0,0-10.5-12.464V2.571a2.625,2.625,0,0,0-5.249,0V4.245a12.76,12.76,0,0,0-10.5,12.464c0,8.218-2.967,10.727-4.552,12.395A2.481,2.481,0,0,0,0,30.848a2.6,2.6,0,0,0,2.634,2.571h31.5a2.6,2.6,0,0,0,2.634-2.571A2.48,2.48,0,0,0,36.058,29.1Z" transform="translate(0)" fill="#ffc700"/>
</svg>
