<svg id="Rocket-rafiki_2_" data-name="Rocket-rafiki (2)" xmlns="http://www.w3.org/2000/svg" width="259.77" height="193.56" viewBox="0 0 259.77 193.56">
  <g id="freepik--background-complete--inject-6" transform="translate(0 0)">
    <rect id="Rectangle_1136" data-name="Rectangle 1136" width="259.77" height="0.13" transform="translate(0 170.098)" fill="#ebebeb"/>
    <rect id="Rectangle_1137" data-name="Rectangle 1137" width="17.207" height="0.13" transform="translate(216.534 178.457)" fill="#ebebeb"/>
    <rect id="Rectangle_1138" data-name="Rectangle 1138" width="4.515" height="0.13" transform="translate(167.567 179.87)" fill="#ebebeb"/>
    <rect id="Rectangle_1139" data-name="Rectangle 1139" width="9.97" height="0.13" transform="translate(206.045 173.636)" fill="#ebebeb"/>
    <rect id="Rectangle_1140" data-name="Rectangle 1140" width="22.439" height="0.13" transform="translate(27.255 174.508)" fill="#ebebeb"/>
    <rect id="Rectangle_1141" data-name="Rectangle 1141" width="3.289" height="0.13" transform="translate(54.323 174.508)" fill="#ebebeb"/>
    <rect id="Rectangle_1142" data-name="Rectangle 1142" width="48.671" height="0.13" transform="translate(68.304 176.701)" fill="#ebebeb"/>
    <path id="Path_4009" data-name="Path 4009" d="M141.489,201.926H41.171a2.967,2.967,0,0,1-2.961-2.967V57.941A2.967,2.967,0,0,1,41.171,55H141.489a2.967,2.967,0,0,1,2.967,2.967V198.96A2.967,2.967,0,0,1,141.489,201.926ZM41.171,55.1a2.837,2.837,0,0,0-2.831,2.837V198.96a2.837,2.837,0,0,0,2.831,2.837H141.489a2.842,2.842,0,0,0,2.837-2.837V57.941a2.842,2.842,0,0,0-2.837-2.837Z" transform="translate(-18.358 -55)" fill="#ebebeb"/>
    <path id="Path_4010" data-name="Path 4010" d="M357.79,201.926H257.467a2.972,2.972,0,0,1-2.967-2.967V57.941A2.972,2.972,0,0,1,257.467,55H357.79a2.967,2.967,0,0,1,2.956,2.941V198.96A2.967,2.967,0,0,1,357.79,201.926ZM257.467,55.1a2.842,2.842,0,0,0-2.837,2.837V198.96a2.842,2.842,0,0,0,2.837,2.837H357.79a2.842,2.842,0,0,0,2.837-2.837V57.941A2.842,2.842,0,0,0,357.79,55.1Z" transform="translate(-122.277 -55)" fill="#ebebeb"/>
    <path id="Path_4011" data-name="Path 4011" d="M176.223,57.785A36.981,36.981,0,0,0,155.633,68.03c-6,5.923-9.705,13.8-15.716,19.743a46.275,46.275,0,0,1-21.54,12.059c-6.7,1.626-13.04.364-19.659,2.348A57.305,57.305,0,0,0,58.24,149.458c-1.242,9.113-.192,18.7,4.156,26.824a35.8,35.8,0,0,0,15.228,14.88c10.713,5.414,23.27,5.066,35.188,6.479a114.9,114.9,0,0,1,32.352,8.739c12.874,5.611,24.808,13.617,38.4,17.145,16.272,4.219,34.57,1.273,47.844-9.045s20.719-28.154,17.347-44.623c-2.078-10.105-7.793-19.052-11.238-28.762a67.364,67.364,0,0,1-3.813-26.06c.431-8.344,2.405-16.869.223-24.938-1.637-6.084-5.533-11.342-10.012-15.773C212.154,62.653,193.134,55.125,176.223,57.785Z" transform="translate(-27.749 -56.081)" fill="#e6e6e6"/>
    <path id="Path_4012" data-name="Path 4012" d="M205.8,174.963h-2.655l-.66-2.083-.644,2.083H199.11l2.151,1.86-1.029,3.33,2.25-2.281,2.307,2.281-1.07-3.367Z" transform="translate(-95.664 -111.637)" fill="#fff"/>
    <path id="Path_4013" data-name="Path 4013" d="M298.722,338.543h-2.66l-.66-2.083-.644,2.083H292.03l2.151,1.86-1.029,3.33,2.25-2.281,2.307,2.281-1.065-3.367Z" transform="translate(-140.309 -190.23)" fill="#fff"/>
    <path id="Path_4014" data-name="Path 4014" d="M209.733,245.794h-1.138l-.281-.894-.275.894H206.87l.92.795-.436,1.424.961-.972.987.972-.457-1.439Z" transform="translate(-99.393 -146.239)" fill="#fff"/>
    <path id="Path_4015" data-name="Path 4015" d="M347.053,230.5h-1.138l-.281-.894-.275.894H344.19l.92.795-.436,1.424.961-.977.987.977-.457-1.439Z" transform="translate(-165.369 -138.893)" fill="#fff"/>
    <path id="Path_4016" data-name="Path 4016" d="M210.947,221.774h-1.133l-.286-.894-.275.894H208.09l.92.795-.442,1.424.961-.972.987.972-.457-1.439Z" transform="translate(-99.979 -134.699)" fill="#fff"/>
    <path id="Path_4017" data-name="Path 4017" d="M134.273,229.188h-1.138l-.281-.888-.275.888H131.41l.92.795-.436,1.429.961-.977.987.977-.457-1.439Z" transform="translate(-63.137 -138.264)" fill="#fff"/>
    <path id="Path_4018" data-name="Path 4018" d="M143.268,270.894h-1.133l-.286-.894-.275.894H140.41l.92.795-.442,1.424.961-.977.987.977-.457-1.439Z" transform="translate(-67.461 -158.299)" fill="#fff"/>
    <path id="Path_4019" data-name="Path 4019" d="M337.223,187.444h-1.138l-.281-.894-.275.894H334.36l.92.795-.436,1.424.961-.972.987.972-.457-1.439Z" transform="translate(-160.646 -118.204)" fill="#fff"/>
    <path id="Path_4020" data-name="Path 4020" d="M321.708,129.259h-.821l-.2-.649-.2.649h-.842l.665.572-.317,1.029.7-.7.712.7-.332-1.039Z" transform="translate(-153.574 -90.367)" fill="#fff"/>
    <path id="Path_4021" data-name="Path 4021" d="M229.808,188.029h-.821l-.2-.649-.2.649h-.842l.665.571-.317,1.029.7-.7.712.7-.327-1.039Z" transform="translate(-109.42 -118.603)" fill="#fff"/>
    <path id="Path_4022" data-name="Path 4022" d="M170.508,200.814h-.821l-.208-.644-.2.644h-.842l.665.571-.317,1.034.691-.707.712.707-.327-1.039Z" transform="translate(-80.929 -124.748)" fill="#fff"/>
    <path id="Path_4023" data-name="Path 4023" d="M255.768,129.114h-.821l-.2-.644-.2.644H253.7l.665.571-.317,1.029.7-.7.712.7-.333-1.039Z" transform="translate(-121.893 -90.299)" fill="#fff"/>
    <path id="Path_4024" data-name="Path 4024" d="M374.378,206.394h-.821l-.2-.644-.2.644h-.842l.665.577L372.658,208l.7-.707.712.707-.333-1.039Z" transform="translate(-178.88 -127.429)" fill="#fff"/>
    <path id="Path_4025" data-name="Path 4025" d="M333.218,157.394H332.4l-.208-.644-.2.644h-.847l.67.577L331.5,159l.7-.707.712.707-.327-1.039Z" transform="translate(-159.104 -103.887)" fill="#fff"/>
    <path id="Path_4026" data-name="Path 4026" d="M382.078,237.324h-.821l-.208-.644-.2.644h-.842l.665.577-.317,1.029.691-.707.717.707-.333-1.044Z" transform="translate(-182.579 -142.29)" fill="#fff"/>
    <path id="Path_4027" data-name="Path 4027" d="M345.648,299.414h-.821l-.208-.644-.2.644h-.842l.665.571-.317,1.029.691-.7.712.7L345,299.975Z" transform="translate(-165.076 -172.122)" fill="#fff"/>
    <path id="Path_4028" data-name="Path 4028" d="M318.788,233.244h-.821l-.2-.644-.2.644h-.842l.665.577-.317,1.029.7-.7.712.7-.333-1.039Z" transform="translate(-152.171 -140.33)" fill="#fff"/>
    <path id="Path_4029" data-name="Path 4029" d="M228.928,242.9h-.821l-.208-.644-.2.644h-.842l.665.577-.317,1.029.691-.7.717.7-.333-1.039Z" transform="translate(-108.997 -144.971)" fill="#fff"/>
    <path id="Path_4030" data-name="Path 4030" d="M156.873,318.464h-1.138l-.281-.894-.281.894H154.01l.92.795-.436,1.424.961-.977.987.977-.457-1.439Z" transform="translate(-73.996 -181.154)" fill="#fff"/>
    <path id="Path_4031" data-name="Path 4031" d="M339.973,367.818H338.84l-.286-.888-.275.888H337.11l.925.795-.442,1.424.961-.972.987.972-.457-1.439Z" transform="translate(-161.968 -204.87)" fill="#fff"/>
    <path id="Path_4032" data-name="Path 4032" d="M207.733,274.474h-1.138l-.281-.894-.275.894H204.87l.925.795-.442,1.424.961-.972.987.972-.457-1.439Z" transform="translate(-98.432 -160.019)" fill="#fff"/>
    <ellipse id="Ellipse_5516" data-name="Ellipse 5516" cx="4.728" cy="4.728" rx="4.728" ry="4.728" transform="translate(185.779 133.856) rotate(-22.5)" fill="#fff"/>
    <path id="Path_4033" data-name="Path 4033" d="M280.811,100.24a2.67,2.67,0,1,1-2.67-2.67A2.67,2.67,0,0,1,280.811,100.24Z" transform="translate(-132.352 -75.453)" fill="#fff"/>
    <path id="Path_4034" data-name="Path 4034" d="M93.239,213.645l-2.2.7a2.7,2.7,0,0,0-3.008,1.777l-1.7,1.585a.218.218,0,0,0,.213.369l2.2-.665a2.686,2.686,0,0,0,3.091-1.782l1.642-1.59a.234.234,0,0,0-.244-.39Z" transform="translate(-41.446 -131.214)" fill="#fff"/>
  </g>
  <g id="freepik--Shadow--inject-6" transform="translate(29.151 181.798)">
    <ellipse id="freepik--path--inject-6" cx="100.734" cy="5.881" rx="100.734" ry="5.881" fill="#f5f5f5"/>
  </g>
  <g id="freepik--Satelite--inject-6" transform="translate(164.383 144.765)">
    <path id="Path_4035" data-name="Path 4035" d="M405.606,348.745l7.206-4.645-2.234,6.1H405.19Z" transform="translate(-359.06 -338.666)" fill="#263238"/>
    <path id="Path_4036" data-name="Path 4036" d="M405.606,348.745l7.206-4.645-2.234,6.1H405.19Z" transform="translate(-359.06 -338.666)" fill="#fff" opacity="0.2"/>
    <path id="Path_4037" data-name="Path 4037" d="M405.871,349.009l6.983-4.5L410.7,350.4H405.44Z" transform="translate(-359.18 -338.863)" fill="#fff" opacity="0.4"/>
    <path id="Path_4038" data-name="Path 4038" d="M417,349.244l5.554-13h-3.564l-5.117,13.243Z" transform="translate(-363.23 -334.889)" fill="#263238"/>
    <path id="Path_4039" data-name="Path 4039" d="M417,349.244l5.554-13h-3.564l-5.117,13.243Z" transform="translate(-363.23 -334.889)" fill="#fff" opacity="0.2"/>
    <path id="Path_4040" data-name="Path 4040" d="M417.1,349.345l5.507-12.895h-3.46l-5.066,13.124Z" transform="translate(-363.331 -334.99)" fill="#fff" opacity="0.4"/>
    <path id="Path_4041" data-name="Path 4041" d="M420.31,349.048l5.512-13.04,3.076-.078-5.3,12.651Z" transform="translate(-366.325 -334.74)" fill="#263238"/>
    <path id="Path_4042" data-name="Path 4042" d="M420.31,349.048l5.512-13.04,3.076-.078-5.3,12.651Z" transform="translate(-366.325 -334.74)" fill="#fff" opacity="0.2"/>
    <path id="Path_4043" data-name="Path 4043" d="M420.43,349.11l5.533-12.947,2.961-.083-5.273,12.573Z" transform="translate(-366.382 -334.812)" fill="#fff" opacity="0.4"/>
    <path id="Path_4044" data-name="Path 4044" d="M432.289,335.722l2.951-.062-5.289,12.266-2.951.426Z" transform="translate(-369.539 -334.611)" fill="#263238"/>
    <path id="Path_4045" data-name="Path 4045" d="M432.289,335.722l2.951-.062-5.289,12.266-2.951.426Z" transform="translate(-369.539 -334.611)" fill="#fff" opacity="0.2"/>
    <path id="Path_4046" data-name="Path 4046" d="M432.4,335.853l2.873-.083-5.263,12.209-2.883.416Z" transform="translate(-369.601 -334.663)" fill="#fff" opacity="0.4"/>
    <path id="Path_4047" data-name="Path 4047" d="M438.3,335.588l2.587-.078-5.081,11.913-2.826.416Z" transform="translate(-372.412 -334.539)" fill="#263238"/>
    <path id="Path_4048" data-name="Path 4048" d="M438.3,335.588l2.587-.078-5.081,11.913-2.826.416Z" transform="translate(-372.412 -334.539)" fill="#fff" opacity="0.2"/>
    <path id="Path_4049" data-name="Path 4049" d="M438.434,335.684l2.515-.094-5.066,11.871-2.743.4Z" transform="translate(-372.489 -334.577)" fill="#fff" opacity="0.4"/>
    <path id="Path_4050" data-name="Path 4050" d="M395.966,354.094,391.42,366.6l8.5-2.359,4.208-12.121Z" transform="translate(-352.444 -342.519)" fill="#053888"/>
    <path id="Path_4051" data-name="Path 4051" d="M395.966,354.094,391.42,366.6l8.5-2.359,4.208-12.121Z" transform="translate(-352.444 -342.519)" opacity="0.2"/>
    <path id="Path_4052" data-name="Path 4052" d="M373.395,342.56l11.872,6.941-4.546,12.505-11.57-7.689Z" transform="translate(-341.744 -337.926)" fill="#053888"/>
    <path id="Path_4053" data-name="Path 4053" d="M373.395,342.56l11.872,6.941-4.546,12.505-11.57-7.689Z" transform="translate(-341.744 -337.926)" opacity="0.05"/>
    <path id="Path_4054" data-name="Path 4054" d="M377.32,341.935l8.759-.675,11.279,5.642-8.167,1.974Z" transform="translate(-345.67 -337.301)" fill="#053888"/>
    <path id="Path_4055" data-name="Path 4055" d="M377.32,341.935l8.759-.675,11.279,5.642-8.167,1.974Z" transform="translate(-345.67 -337.301)" fill="#fff" opacity="0.4"/>
    <path id="Path_4056" data-name="Path 4056" d="M403.729,333.64l.333.171-2.821,7.58-.421-.13Z" transform="translate(-356.96 -333.64)" fill="#263238"/>
    <path id="Path_4057" data-name="Path 4057" d="M403.729,333.64l.13.068-2.9,7.6-.14-.042Z" transform="translate(-356.96 -333.64)" fill="#fff" opacity="0.4"/>
    <path id="Path_4058" data-name="Path 4058" d="M404.192,333.874l-.2-.1-2.9,7.6.281.088Z" transform="translate(-357.09 -333.703)" fill="#fff" opacity="0.2"/>
    <path id="Path_4059" data-name="Path 4059" d="M322.25,339.729l-5.85,19.026,6.733-1.049,5.938-18.225Z" transform="translate(-316.4 -336.446)" fill="#263238"/>
    <path id="Path_4060" data-name="Path 4060" d="M322.25,339.729l-5.85,19.026,6.733-1.049,5.938-18.225Z" transform="translate(-316.4 -336.446)" fill="#fff" opacity="0.2"/>
    <path id="Path_4061" data-name="Path 4061" d="M322.488,339.978l-5.808,18.9,6.588-1.029,5.886-18.075Z" transform="translate(-316.535 -336.585)" fill="#fff" opacity="0.4"/>
    <path id="Path_4062" data-name="Path 4062" d="M335.94,339.245l-5.85,18.225,6.354-.93,5.808-17.55Z" transform="translate(-322.977 -336.21)" fill="#263238"/>
    <path id="Path_4063" data-name="Path 4063" d="M335.94,339.245l-5.85,18.225,6.354-.93,5.808-17.55Z" transform="translate(-322.977 -336.21)" fill="#fff" opacity="0.2"/>
    <path id="Path_4064" data-name="Path 4064" d="M336.189,339.5l-5.808,18.049,6.2-.9,5.777-17.441Z" transform="translate(-323.117 -336.311)" fill="#fff" opacity="0.4"/>
    <path id="Path_4065" data-name="Path 4065" d="M348.638,338.861l-5.788,17.4,5.788-.738,5.788-16.812Z" transform="translate(-329.108 -336.076)" fill="#263238"/>
    <path id="Path_4066" data-name="Path 4066" d="M348.638,338.861l-5.788,17.4,5.788-.738,5.788-16.812Z" transform="translate(-329.108 -336.076)" fill="#fff" opacity="0.2"/>
    <path id="Path_4067" data-name="Path 4067" d="M348.86,339.1l-5.71,17.275,5.632-.717,5.736-16.667Z" transform="translate(-329.252 -336.21)" fill="#fff" opacity="0.4"/>
    <path id="Path_4068" data-name="Path 4068" d="M360.17,338.247l-5.85,16.88,5.492-.779,5.679-16.288Z" transform="translate(-334.619 -335.764)" fill="#263238"/>
    <path id="Path_4069" data-name="Path 4069" d="M360.17,338.247l-5.85,16.88,5.492-.779,5.679-16.288Z" transform="translate(-334.619 -335.764)" fill="#fff" opacity="0.2"/>
    <path id="Path_4070" data-name="Path 4070" d="M360.353,338.452l-5.782,16.755,5.362-.764,5.642-16.184Z" transform="translate(-334.739 -335.86)" fill="#fff" opacity="0.4"/>
    <path id="Path_4071" data-name="Path 4071" d="M376.933,351.319l-.691,2-8.562,1.7,2.993-8.333Z" transform="translate(-341.038 -339.91)" fill="#263238"/>
    <path id="Path_4072" data-name="Path 4072" d="M376.933,351.319l-.691,2-8.562,1.7,2.993-8.333Z" transform="translate(-341.038 -339.91)" fill="#fff" opacity="0.2"/>
    <path id="Path_4073" data-name="Path 4073" d="M377.015,351.639l-.629,1.834-8.406,1.673,2.9-8.136Z" transform="translate(-341.182 -340.064)" fill="#fff" opacity="0.4"/>
    <path id="Path_4074" data-name="Path 4074" d="M407.109,353.66l-8.162,15.207c-2.182-1.039-2.2-7.227-.571-10.78C400.386,354.637,404.849,352.943,407.109,353.66Z" transform="translate(-355.233 -343.181)" fill="#263238"/>
    <g id="Group_1025" data-name="Group 1025" transform="translate(42.439 14.906)" opacity="0.2">
      <path id="Path_4075" data-name="Path 4075" d="M400.016,371.884l-.353.66c-2.021-1.907-1.85-7.372-.873-10.214C397.252,368.424,400.016,371.884,400.016,371.884Z" transform="translate(-398.086 -362.33)"/>
    </g>
    <g id="Group_1026" data-name="Group 1026" transform="translate(41.992 10.317)" opacity="0.3">
      <path id="Path_4076" data-name="Path 4076" d="M407.109,353.66l-8.162,15.207c-2.182-1.039-2.2-7.227-.571-10.78C400.386,354.637,404.849,352.943,407.109,353.66Z" transform="translate(-397.225 -353.498)" fill="#fff"/>
    </g>
    <path id="Path_4077" data-name="Path 4077" d="M400.42,358.3c3.226-2.816,5.523-3.258,7.544-2.686l.327-.613C405.792,354.69,403.459,355.293,400.42,358.3Z" transform="translate(-356.768 -343.868)" fill="#fff" opacity="0.2"/>
    <path id="Path_4078" data-name="Path 4078" d="M400.29,359.42c-2.39,4.156-2.92,8.313-1.185,9.31s5.076-1.559,7.466-5.684,2.92-8.313,1.185-9.3S402.68,355.284,400.29,359.42Z" transform="translate(-355.646 -343.194)" fill="#053888"/>
    <path id="Path_4079" data-name="Path 4079" d="M400.29,359.42c-2.39,4.156-2.92,8.313-1.185,9.31s5.076-1.559,7.466-5.684,2.92-8.313,1.185-9.3S402.68,355.284,400.29,359.42Z" transform="translate(-355.646 -343.194)" fill="#fff" opacity="0.4"/>
    <path id="Path_4080" data-name="Path 4080" d="M401.191,361.933a15.4,15.4,0,0,0-1.148,2.567,1.631,1.631,0,0,0,.582,1.907c.831.478,2.437-.743,3.585-2.728s1.4-3.99.572-4.473a1.861,1.861,0,0,0-2.109.681,13.671,13.671,0,0,0-1.481,2.047Z" transform="translate(-356.536 -345.863)" opacity="0.2"/>
    <path id="Path_4081" data-name="Path 4081" d="M406.776,365.224l-2.172-.878L403.373,363a1.289,1.289,0,0,0-.888,1.439l1.673.551,1.663,1.876Z" transform="translate(-357.752 -347.746)" fill="#263238"/>
    <path id="Path_4082" data-name="Path 4082" d="M406.776,365.224l-2.172-.878L403.373,363a1.289,1.289,0,0,0-.888,1.439l1.673.551,1.663,1.876Z" transform="translate(-357.752 -347.746)" fill="#fff" opacity="0.2"/>
    <path id="Path_4083" data-name="Path 4083" d="M408.945,367.884c-.265.462-.322.92-.13,1.039s.561-.171.826-.629.322-.92.13-1.039S409.21,367.427,408.945,367.884Z" transform="translate(-360.747 -349.778)" fill="#263238"/>
    <path id="Path_4084" data-name="Path 4084" d="M408.945,367.884c-.265.462-.322.92-.13,1.039s.561-.171.826-.629.322-.92.13-1.039S409.21,367.427,408.945,367.884Z" transform="translate(-360.747 -349.778)" fill="#fff" opacity="0.4"/>
    <path id="Path_4085" data-name="Path 4085" d="M402.687,364.06a1.6,1.6,0,0,0-.192.909l1.673.551,1.663,1.876c-.208-.156-.062-.779.177-1.107C406.007,366.289,405.352,365.878,402.687,364.06Z" transform="translate(-357.762 -348.256)" opacity="0.2"/>
    <path id="Path_4086" data-name="Path 4086" d="M407.28,365.271l-2.083-.784L403.9,363.13l-.083.031,1.34,1.34,2,.81Z" transform="translate(-358.402 -347.809)" fill="#fff" opacity="0.2"/>
    <g id="Group_1027" data-name="Group 1027" transform="translate(48.094 17.621)" opacity="0.2">
      <path id="Path_4087" data-name="Path 4087" d="M409.178,368.1c-.223.39-.275.785-.114.878s.483-.145.707-.52.275-.785.114-.883S409.4,367.709,409.178,368.1Z" transform="translate(-408.97 -367.556)"/>
      <path id="Path_4088" data-name="Path 4088" d="M409.178,368.1c-.223.39-.275.785-.114.878s.483-.145.707-.52.275-.785.114-.883S409.4,367.709,409.178,368.1Z" transform="translate(-408.97 -367.556)" opacity="0.4"/>
    </g>
    <path id="Path_4089" data-name="Path 4089" d="M402.75,378.264l.1.166,5.954-2.9-.078-.156Z" transform="translate(-357.888 -353.69)" fill="#263238"/>
    <path id="Path_4090" data-name="Path 4090" d="M402.75,378.264l.1.166,5.954-2.9-.078-.156Z" transform="translate(-357.888 -353.69)" fill="#fff" opacity="0.1"/>
    <path id="Path_4091" data-name="Path 4091" d="M417.71,359.69h.156l.166,5.216h-.208Z" transform="translate(-365.075 -346.156)" fill="#263238"/>
    <path id="Path_4092" data-name="Path 4092" d="M417.71,359.69h.156l.166,5.216h-.208Z" transform="translate(-365.075 -346.156)" fill="#fff" opacity="0.1"/>
    <path id="Path_4093" data-name="Path 4093" d="M404.135,362.14l7.31,3.943-.088.12L404,362.275Z" transform="translate(-358.488 -347.333)" fill="#263238"/>
    <path id="Path_4094" data-name="Path 4094" d="M404.135,362.14l7.31,3.943-.088.12L404,362.275Z" transform="translate(-358.488 -347.333)" fill="#fff" opacity="0.1"/>
    <path id="Path_4095" data-name="Path 4095" d="M403.65,362.966l.125-.156,5.518,6.453-.083.125Z" transform="translate(-358.32 -347.655)" fill="#263238"/>
    <path id="Path_4096" data-name="Path 4096" d="M403.65,362.966l.125-.156,5.518,6.453-.083.125Z" transform="translate(-358.32 -347.655)" fill="#fff" opacity="0.1"/>
    <path id="Path_4097" data-name="Path 4097" d="M414.647,370.971c-.52.93-.655,1.865-.265,2.078s1.143-.343,1.678-1.273.655-1.865.265-2.078S415.187,370.041,414.647,370.971Z" transform="translate(-363.368 -350.943)" fill="#263238"/>
    <path id="Path_4098" data-name="Path 4098" d="M414.647,370.971c-.52.93-.655,1.865-.265,2.078s1.143-.343,1.678-1.273.655-1.865.265-2.078S415.187,370.041,414.647,370.971Z" transform="translate(-363.368 -350.943)" fill="#fff" opacity="0.2"/>
    <path id="Path_4099" data-name="Path 4099" d="M414.969,371.247c-.483.836-.587,1.673-.239,1.876s1.039-.312,1.507-1.143.587-1.678.239-1.881S415.452,370.411,414.969,371.247Z" transform="translate(-363.545 -351.136)" opacity="0.1"/>
    <path id="Path_4100" data-name="Path 4100" d="M376.948,359.45l-7.8,2.982.571-1.585Z" transform="translate(-341.744 -346.041)" opacity="0.2"/>
  </g>
  <g id="freepik--planet-2--inject-6" transform="translate(183.947 25.457)">
    <ellipse id="Ellipse_5517" data-name="Ellipse 5517" cx="13.835" cy="13.835" rx="13.835" ry="13.835" transform="translate(8.595)" fill="#053888"/>
    <ellipse id="Ellipse_5518" data-name="Ellipse 5518" cx="13.835" cy="13.835" rx="13.835" ry="13.835" transform="translate(8.595)" fill="#fff" opacity="0.4"/>
    <ellipse id="Ellipse_5519" data-name="Ellipse 5519" cx="13.835" cy="13.835" rx="13.835" ry="13.835" transform="translate(8.595)" fill="#fff" opacity="0.4"/>
    <path id="Path_4101" data-name="Path 4101" d="M372.228,113.561c-.312,1.559.769,2.213,3.143,2.078a40.608,40.608,0,0,0,16.153-4.354,1.834,1.834,0,0,0,.795-2.525c6.718,5.336,7.185,12.469,4.26,17.95a5.533,5.533,0,0,1-3.019,2.25,42.8,42.8,0,0,1-11.181,2.738c-3.548.52-5.632.286-6.432-.639C369.895,126.367,369.386,119.172,372.228,113.561Z" transform="translate(-361.986 -106.287)" fill="#fff" opacity="0.2"/>
    <path id="Path_4102" data-name="Path 4102" d="M370.6,125.047a13.108,13.108,0,0,0,2.286,7.466c.727,1.039,3.081,1.247,6.754.733a52.277,52.277,0,0,0,13.918-3.408c2.431-.956,4.042-2.177,4.733-3.71a14.027,14.027,0,0,0-1.413-7.118c-.213,1.912-1.522,3.5-4.156,4.676a70.964,70.964,0,0,1-15.966,3.943C373.281,128.029,370.886,127.458,370.6,125.047Z" transform="translate(-362.005 -111.212)" fill="#fff" opacity="0.2"/>
    <path id="Path_4103" data-name="Path 4103" d="M385.015,106.106a20.839,20.839,0,0,1,4.084-1.117c1.834-.187,2.151.125,1.948.608a6.234,6.234,0,0,1-1.9,1.33,11.545,11.545,0,0,1-3.481.9,3.7,3.7,0,0,1-2.229-.327C383.186,107.047,383.934,106.569,385.015,106.106Z" transform="translate(-368.149 -104.449)" opacity="0.1"/>
    <path id="Path_4104" data-name="Path 4104" d="M398.832,115.465c-.691-2.13-5.237-2.728-11.581-1.891a12.286,12.286,0,0,1,1.465,2.213h0c2.27.088,3.772.629,4.1,1.631.8,2.478-5.855,6.853-14.869,9.767s-16.968,3.278-17.768.8c-.348-1.039.488-2.322,2.483-3.819-.026,0,.14-.109.114-.094a14.156,14.156,0,0,1-.094-2.6c-5.788,3.086-9.237,6.3-8.536,8.463,1.1,3.393,12,2.9,24.34-1.1S399.934,118.858,398.832,115.465Z" transform="translate(-354.057 -108.425)" fill="#053888"/>
    <path id="Path_4105" data-name="Path 4105" d="M398.832,115.465c-.691-2.13-5.237-2.728-11.581-1.891a12.286,12.286,0,0,1,1.465,2.213h0c2.27.088,3.772.629,4.1,1.631.8,2.478-5.855,6.853-14.869,9.767s-16.968,3.278-17.768.8c-.348-1.039.488-2.322,2.483-3.819-.026,0,.14-.109.114-.094a14.156,14.156,0,0,1-.094-2.6c-5.788,3.086-9.237,6.3-8.536,8.463,1.1,3.393,12,2.9,24.34-1.1S399.934,118.858,398.832,115.465Z" transform="translate(-354.057 -108.425)" fill="#fff" opacity="0.3"/>
  </g>
  <g id="freepik--planet-1--inject-6" transform="translate(30.409 35.534)">
    <circle id="Ellipse_5520" data-name="Ellipse 5520" cx="20.267" cy="20.267" r="20.267" transform="translate(0 28.662) rotate(-45)" fill="#053888"/>
    <circle id="Ellipse_5521" data-name="Ellipse 5521" cx="20.267" cy="20.267" r="20.267" transform="translate(0 28.662) rotate(-45)" fill="#fff" opacity="0.4"/>
    <path id="Path_4106" data-name="Path 4106" d="M117.722,161.405l-.462.068a.421.421,0,0,1-.338-.094l-.748-.629a.713.713,0,0,0-.1-.068l-2.182-.94a.426.426,0,0,1-.182-.151l-1.231-1.74a.52.52,0,0,0-.218-.182l-.722-.332a.343.343,0,0,0-.1-.031l-.764-.114a.7.7,0,0,1-.291-.125l-1.621-1.226a.473.473,0,0,0-.223-.088l-1.19-.156a.431.431,0,0,0-.229.031l-.322.14a.436.436,0,0,1-.343,0l-1.418-.655a.405.405,0,0,0-.27-.031l-1.257.281a.4.4,0,0,0-.2.125l-.52.572a.374.374,0,0,1-.358.114l-1.039-.218-2.187-.977-.712-1.112a.41.41,0,0,1-.052-.291l.156-.862.52-1.237a.073.073,0,0,0-.078-.1l-.92.109a.379.379,0,0,0-.281.187l-.27.468a.447.447,0,0,1-.286.208l-1.257.281a.234.234,0,0,1-.281-.156L95.58,152l-.384-.707a.369.369,0,0,1,0-.384l.623-.909.244-.629a.4.4,0,0,1,.161-.2l.826-.52a.441.441,0,0,1,.281-.062l.785.109a.358.358,0,0,0,.281-.078l.317-.249a.379.379,0,0,1,.2-.073l.878-.062a.426.426,0,0,1,.208.042l.473.218a.27.27,0,0,1,.151.244v.421a.249.249,0,0,0,.249.249h.14a.327.327,0,0,0,.322-.353l-.042-.364-.083-.738a.343.343,0,0,1,.187-.348l.842-.421,1.1-1.211.748-1.127,1.382-.431a.286.286,0,0,0,.2-.27v-.675a.265.265,0,0,1,.2-.26l.914-.223a.353.353,0,0,0,.2-.135l.379-.561a.151.151,0,0,0-.073-.229l-1.668-.613-1.221-.592a.333.333,0,0,0-.333.026l-1.559,1.086a.384.384,0,0,1-.374.031l-1.127-.52-.847-.39a.094.094,0,0,1,0-.171l.857-.286a.291.291,0,0,0,.1-.057l1.164-.977a20.127,20.127,0,0,0-8.313,2.286,37.49,37.49,0,0,0-2.182,8.167.416.416,0,0,0,.13.353l3.19,3.055a.348.348,0,0,0,.208.094l1.185.13a.353.353,0,0,1,.166.057l4.572,2.748a.322.322,0,0,1,.161.317l-.442,4.619a.753.753,0,0,0,.114.494l2.234,3.548a.483.483,0,0,0,.109.119l1.714,1.32a.291.291,0,0,1,.109.275l-.613,3.751-1.169,5.793c.114.779,1.127.3,2.6-.79l1.46-2.4,1.283-.52,3.284-2.343,2.26-2.561,1.216-2.691a.592.592,0,0,1,.078-.119l1.237-1.418.826-.857a.431.431,0,0,0,.119-.291V161.5a.088.088,0,0,0-.1-.094Z" transform="translate(-74.513 -131.181)" opacity="0.2"/>
    <path id="Path_4107" data-name="Path 4107" d="M90.18,161.93Z" transform="translate(-73.737 -141.909)" fill="#fff"/>
    <path id="Path_4108" data-name="Path 4108" d="M147.73,177.55Z" transform="translate(-101.388 -149.414)" fill="#fff"/>
    <path id="Path_4109" data-name="Path 4109" d="M150.31,174.26Z" transform="translate(-102.627 -147.833)" fill="#fff"/>
    <path id="Path_4110" data-name="Path 4110" d="M150.31,174.205V174.2h0Z" transform="translate(-102.627 -147.804)" fill="#fff"/>
    <path id="Path_4111" data-name="Path 4111" d="M131.056,147.811h-.026a.068.068,0,0,0,0-.031Z" transform="translate(-93.364 -135.111)" fill="#fff"/>
  </g>
  <g id="freepik--Character--inject-6" transform="translate(57.482 46.428)">
    <path id="Path_4112" data-name="Path 4112" d="M272.774,248.5c1.694.894,14.859,15.742,11.347,22.8-2.6,5.2-18.833,7.611-18.833,7.611l-2-4.432s11.887-4.208,12.589-6.053-12.656-11.664-12.656-11.664Z" transform="translate(-183.949 -194.397)" fill="#053888"/>
    <path id="Path_4113" data-name="Path 4113" d="M272.774,248.5c1.694.894,14.859,15.742,11.347,22.8-2.6,5.2-18.833,7.611-18.833,7.611l-2-4.432s11.887-4.208,12.589-6.053-12.656-11.664-12.656-11.664Z" transform="translate(-183.949 -194.397)" fill="#fff" opacity="0.3"/>
    <path id="Path_4114" data-name="Path 4114" d="M273.124,292.63c-.426,1.725-1.663,3.055-4.187,3.772l1.559,3.154-.322.068-2.463-4.78Z" transform="translate(-186.106 -215.6)" opacity="0.2"/>
    <path id="Path_4115" data-name="Path 4115" d="M256.956,295l3.445,6.692-6.635,1.5a.691.691,0,0,0-.52.883l.79,2.437a1.039,1.039,0,0,1-.442,1.179l-.52.312a.712.712,0,0,1-.956-.218l-5.715-8.63a.426.426,0,0,1,.218-.639Z" transform="translate(-175.835 -216.739)" fill="#053888"/>
    <g id="Group_1028" data-name="Group 1028" transform="translate(70.498 78.261)" opacity="0.2">
      <path id="Path_4116" data-name="Path 4116" d="M256.956,295l3.445,6.692-6.635,1.5a.691.691,0,0,0-.52.883l.79,2.437a1.039,1.039,0,0,1-.442,1.179l-.52.312a.712.712,0,0,1-.956-.218l-5.715-8.63a.426.426,0,0,1,.218-.639Z" transform="translate(-246.333 -295)" fill="#fff"/>
    </g>
    <path id="Path_4117" data-name="Path 4117" d="M255,297.054a20.984,20.984,0,0,0,7.471.52l-1.351-2.624Z" transform="translate(-179.999 -216.715)" opacity="0.2"/>
    <path id="Path_4118" data-name="Path 4118" d="M279.019,266.991l1.091,1c1.112-4.016-.894-7.861-1.559-12.989l-.961.27A52.514,52.514,0,0,1,279.019,266.991Z" transform="translate(-190.853 -197.52)" opacity="0.2"/>
    <path id="Path_4119" data-name="Path 4119" d="M213.8,318.3l-9.435,3.621L202.6,308.046l9.321-3.736Z" transform="translate(-154.823 -221.212)" fill="#053888"/>
    <path id="Path_4120" data-name="Path 4120" d="M213.8,318.3l-9.435,3.621L202.6,308.046l9.321-3.736Z" transform="translate(-154.823 -221.212)" opacity="0.2"/>
    <path id="Path_4121" data-name="Path 4121" d="M212.72,273.886c5.616-11.5,11.248-19.784,16.921-20.886l42.971-12.365c10.308-1.559,19.607,1.486,27.842,9.445-1.522,12.916-7.793,19.7-16.792,22.907l-44.441,11.679C235.164,285.674,226.831,282.547,212.72,273.886Z" transform="translate(-159.685 -190.429)" fill="#053888"/>
    <path id="Path_4122" data-name="Path 4122" d="M189.231,301.123,204.365,294a7.539,7.539,0,0,1,3.154,9.528l-15.358,5.055C188.862,306.62,188.187,304.458,189.231,301.123Z" transform="translate(-148.182 -216.258)" fill="#053888"/>
    <path id="Path_4123" data-name="Path 4123" d="M141.08,301.076l-6.188.556a8.832,8.832,0,0,0-5.128,2.239l-19.124,17.29,25.878,2.2a8.832,8.832,0,0,0,4.084-.618l4.956-2.026a8.832,8.832,0,0,0,5.315-6.411l.2-.966a8.832,8.832,0,0,0-.244-4.432l-.561-1.751a8.832,8.832,0,0,0-1.678-3.029h0a8.832,8.832,0,0,0-7.507-3.05Z" transform="translate(-110.64 -219.641)" fill="#053888"/>
    <path id="Path_4124" data-name="Path 4124" d="M141.08,301.076l-6.188.556a8.832,8.832,0,0,0-5.128,2.239l-19.124,17.29,25.878,2.2a8.832,8.832,0,0,0,4.084-.618l4.956-2.026a8.832,8.832,0,0,0,5.315-6.411l.2-.966a8.832,8.832,0,0,0-.244-4.432l-.561-1.751a8.832,8.832,0,0,0-1.678-3.029h0a8.832,8.832,0,0,0-7.507-3.05Z" transform="translate(-110.64 -219.641)" fill="#fff" opacity="0.19"/>
    <path id="Path_4125" data-name="Path 4125" d="M162.333,309.571l-3.154.286a4.494,4.494,0,0,0-2.6,1.138L146.84,319.8l13.181,1.133a4.51,4.51,0,0,0,2.078-.317l2.525-1.039a4.5,4.5,0,0,0,2.707-3.268l.1-.494a4.483,4.483,0,0,0-.119-2.255l-.286-.894a4.509,4.509,0,0,0-.857-1.559h0a4.489,4.489,0,0,0-3.834-1.538Z" transform="translate(-128.033 -223.729)" fill="#fff" opacity="0.29"/>
    <path id="Path_4126" data-name="Path 4126" d="M170.035,313.211l-1.974.177a2.826,2.826,0,0,0-1.631.717l-6.089,5.507,8.24.707a2.867,2.867,0,0,0,1.3-.2l1.559-.644a2.816,2.816,0,0,0,1.689-2.047l.062-.307a2.816,2.816,0,0,0-.078-1.408l-.177-.561a2.821,2.821,0,0,0-.52-.961h0a2.816,2.816,0,0,0-2.385-.982Z" transform="translate(-134.519 -225.483)" fill="#053888"/>
    <path id="Path_4127" data-name="Path 4127" d="M212.72,273.845c5.616-11.5,11.248-19.784,17.264-20.984l42.94-12.344c9.97-1.481,19.27,1.585,27.5,9.544-1.522,12.916-7.793,19.7-16.792,22.907L239.2,284.647C235.164,285.634,226.831,282.506,212.72,273.845Z" transform="translate(-159.685 -190.389)" opacity="0.1"/>
    <path id="Path_4128" data-name="Path 4128" d="M189.231,301.123,204.365,294a10.16,10.16,0,0,0,3.154,9.528l-15.358,5.055C188.862,306.62,188.187,304.458,189.231,301.123Z" transform="translate(-148.182 -216.258)" fill="#053888"/>
    <path id="Path_4129" data-name="Path 4129" d="M185.14,331.113l14.459-5.523,2.618-17.431L191.4,312.327Z" transform="translate(-146.434 -223.061)" fill="#053888"/>
    <path id="Path_4130" data-name="Path 4130" d="M185.14,331.113l14.459-5.523,2.618-17.431L191.4,312.327Z" transform="translate(-146.434 -223.061)" fill="#fff" opacity="0.3"/>
    <path id="Path_4131" data-name="Path 4131" d="M160.96,281.36l15.758-4.79,12.859,11.342-12.433,5.117Z" transform="translate(-134.817 -207.884)" fill="#053888"/>
    <path id="Path_4132" data-name="Path 4132" d="M160.96,281.36l15.758-4.79,12.859,11.342-12.433,5.117Z" transform="translate(-134.817 -207.884)" fill="#fff" opacity="0.3"/>
    <path id="Path_4133" data-name="Path 4133" d="M312.525,244.093l2.172-.623a6.312,6.312,0,0,0-2.717,4.51c-1.907,10.038.592,19.223,6.941,27.177a5.413,5.413,0,0,0,4.188,1.247l-1.86.488a4.69,4.69,0,0,1-4.011-1.559c-6.4-6.125-9.211-18.335-7-27.214C310.645,246.021,311.621,244.353,312.525,244.093Z" transform="translate(-206.181 -191.98)" fill="#fff" opacity="0.7"/>
    <path id="Path_4134" data-name="Path 4134" d="M302.914,246.857l2.078-.6c-1.32.572-2.431,2.676-2.717,4.489-1.9,10.038.613,19.1,6.941,27.177.894.992,2.7,1.242,4.156,1.159l-1.943.494a4.113,4.113,0,0,1-3.886-1.465c-6.4-6.125-9.217-18.335-7-27.214C300.852,248.806,302.3,247.034,302.914,246.857Z" transform="translate(-201.521 -193.321)" fill="#fff" opacity="0.7"/>
    <path id="Path_4135" data-name="Path 4135" d="M378.568,255.33c-.4,1.075-.218,1.9.795,2.338l13.409-4.052c2.011-.826,2.754-1.351-.239-.972Z" transform="translate(-239.274 -196.328)" fill="#053888"/>
    <path id="Path_4136" data-name="Path 4136" d="M378.568,255.33c-.4,1.075-.218,1.9.795,2.338l13.409-4.052c2.011-.826,2.754-1.351-.239-.972Z" transform="translate(-239.274 -196.328)" opacity="0.3"/>
    <path id="Path_4137" data-name="Path 4137" d="M222.44,286.537c8.609,3.117,18.293,7.31,22.4,6.073l43.87-11.664c5.783-.857,11.1-12.105,15.108-19.317-4.676,6.64-9.4,16.423-16.277,17.836l-42.7,11.451C239.876,292.563,230.415,288.625,222.44,286.537Z" transform="translate(-164.355 -200.706)" opacity="0.2"/>
    <path id="Path_4138" data-name="Path 4138" d="M318.026,244.065a4.156,4.156,0,0,0-1.616,2.572l7.274-2.016c6.853-1.491,18.937,3.029,24.938,6.754-5.2-4.614-18.09-10.193-24.418-8.671Z" transform="translate(-209.504 -191.489)" fill="#fff" opacity="0.4"/>
    <path id="Path_4139" data-name="Path 4139" d="M378.65,257.224l.582.6,15.3-4.7Z" transform="translate(-239.408 -196.617)" opacity="0.3"/>
    <path id="Path_4140" data-name="Path 4140" d="M260.2,255.66l-.374,20.719-14.625.078c7.622,2.935,15.223,3.813,17.2.857,3.424-5.715,3.273-13.581,1.039-22.595Z" transform="translate(-175.291 -197.386)" opacity="0.2"/>
    <path id="Path_4141" data-name="Path 4141" d="M280.77,253.482l11.6-3.242a4.338,4.338,0,0,0-.842,1.943l-10.391,2.951Z" transform="translate(-192.381 -195.233)" fill="#e6e6e6" opacity="0.2"/>
    <path id="Path_4142" data-name="Path 4142" d="M243.832,264.68l-5.876,1.876a11.949,11.949,0,0,0-3.637,2.676l-3.18,3.684,2.187.478,2.639-3.076a8.978,8.978,0,0,1,2.894-2.224l5.606-1.99Z" transform="translate(-168.535 -202.171)" fill="#e0e0e0" opacity="0.2"/>
    <path id="Path_4143" data-name="Path 4143" d="M233.89,190.941,241.777,197l12.713,1.621,7.881-18.226-3.715-5.112-16.88-6.032C237.532,175.287,235.547,182.794,233.89,190.941Z" transform="translate(-169.857 -156.321)" fill="#053888"/>
    <path id="Path_4144" data-name="Path 4144" d="M233.89,190.941,241.777,197l12.713,1.621,7.881-18.226-3.715-5.112-16.88-6.032C238.1,174.549,235.537,181.927,233.89,190.941Z" transform="translate(-169.857 -156.321)" fill="#fff" opacity="0.2"/>
    <path id="Path_4145" data-name="Path 4145" d="M233.89,190.941l7.887,6.053,8.162-20.169a29.587,29.587,0,0,1-8.162-7.575C238.472,173.583,235.88,180.981,233.89,190.941Z" transform="translate(-169.857 -156.321)" opacity="0.3"/>
    <path id="Path_4146" data-name="Path 4146" d="M255.985,248.519c1.07,1.559,5.621,20.943-.81,25.5-4.728,3.351-20.195-2.2-20.195-2.2l.327-4.853s12.469,1.917,13.96.623-5.279-13.092-5.637-16.262S255.985,248.519,255.985,248.519Z" transform="translate(-170.38 -194.401)" fill="#053888"/>
    <path id="Path_4147" data-name="Path 4147" d="M255.985,248.519c1.07,1.559,5.621,20.943-.81,25.5-4.728,3.351-20.195-2.2-20.195-2.2l.327-4.853s12.469,1.917,13.96.623-5.279-13.092-5.637-16.262S255.985,248.519,255.985,248.519Z" transform="translate(-170.38 -194.401)" fill="#fff" opacity="0.3"/>
    <path id="Path_4148" data-name="Path 4148" d="M235.72,281.646l-.478,7.507-6.468-2.115a.686.686,0,0,0-.883.52l-.572,2.494a1.039,1.039,0,0,1-.987.785h-.6a.712.712,0,0,1-.712-.675l-.478-10.344a.426.426,0,0,1,.52-.436Z" transform="translate(-165.364 -209.229)" fill="#053888"/>
    <path id="Path_4149" data-name="Path 4149" d="M290.811,191.64s2.364,11.57,3.98,13.893,9.871,10.115,9.871,10.115l-.779,2.421s-12.4-7.954-13.248-9.071S284,197.022,284,197.022Z" transform="translate(-193.932 -167.078)" fill="#053888"/>
    <path id="Path_4150" data-name="Path 4150" d="M300.755,164.089s-.675,3.289-3.221,4.011.042-6.328.042-6.328l2.328-.572Z" transform="translate(-199.896 -152.453)" fill="#263238"/>
    <circle id="Ellipse_5522" data-name="Ellipse 5522" cx="9.248" cy="9.248" r="9.248" transform="translate(80.932 13.078) rotate(-45)" fill="#263238"/>
    <circle id="Ellipse_5523" data-name="Ellipse 5523" cx="9.248" cy="9.248" r="9.248" transform="translate(80.932 13.078) rotate(-45)" fill="#fff" opacity="0.2"/>
    <path id="Path_4151" data-name="Path 4151" d="M295.505,180a7.689,7.689,0,0,0,4.769-3.117l-.712-.421a12.557,12.557,0,0,1-4.593,3.117Z" transform="translate(-199.203 -159.785)" fill="#fff" opacity="0.7"/>
    <path id="Path_4152" data-name="Path 4152" d="M304.968,175.383l-.738-.348a1.46,1.46,0,0,0,.338-.675l.691.353a1.138,1.138,0,0,1-.291.67Z" transform="translate(-203.652 -158.776)" fill="#fff" opacity="0.7"/>
    <path id="Path_4153" data-name="Path 4153" d="M278.3,176.638c-.52,1.907,4.967,4.588,6.889,2.681a2.425,2.425,0,0,1-1.179-2.405,3.689,3.689,0,0,1,.566-1.356,6.629,6.629,0,0,1,.478-.675l-2.338-4.842C282.231,172.17,281.15,176.981,278.3,176.638Z" transform="translate(-191.176 -156.7)" fill="#e4897b"/>
    <path id="Path_4154" data-name="Path 4154" d="M286.391,174.4a3.7,3.7,0,0,0,1.356,4.608,3.688,3.688,0,0,1,.566-1.356Z" transform="translate(-194.915 -158.795)" opacity="0.2" style="isolation: isolate"/>
    <path id="Path_4155" data-name="Path 4155" d="M285.07,168.432a3.637,3.637,0,0,0,3.455,2.78,4.068,4.068,0,0,0,2.842-.982,3.344,3.344,0,0,0,.312-.3c1.839-1.953,3.637-5.886,1.746-8.313a3.964,3.964,0,0,0-6.723.722C285.408,164.951,284.53,166.422,285.07,168.432Z" transform="translate(-194.369 -151.913)" fill="#e4897b"/>
    <path id="Path_4156" data-name="Path 4156" d="M294.848,169.758a.358.358,0,0,0,.026.52c.14.078.343,0,.457-.234s.1-.431-.031-.52S294.968,169.565,294.848,169.758Z" transform="translate(-199.097 -156.439)" fill="#263238"/>
    <path id="Path_4157" data-name="Path 4157" d="M299.3,172.349a.369.369,0,0,0,.031.52c.135.073.338-.031.457-.234s.1-.436-.031-.52S299.419,172.152,299.3,172.349Z" transform="translate(-201.241 -157.685)" fill="#263238"/>
    <path id="Path_4158" data-name="Path 4158" d="M296.837,172a8.2,8.2,0,0,0-.026,2.312,1.366,1.366,0,0,1-1.091-.379Z" transform="translate(-199.563 -157.642)" fill="#de5753"/>
    <path id="Path_4159" data-name="Path 4159" d="M294.332,167.451a.145.145,0,0,0,.146,0,1.107,1.107,0,0,1,1,.042.14.14,0,0,0,.156-.229h0a1.372,1.372,0,0,0-1.262-.068.14.14,0,0,0-.078.182h0a.229.229,0,0,0,.042.073Z" transform="translate(-198.872 -155.276)" fill="#263238"/>
    <path id="Path_4160" data-name="Path 4160" d="M292.708,175.918h0a2.125,2.125,0,0,1-1.3-1.47.078.078,0,0,1,.062-.088.073.073,0,0,1,.083.057h0a2.047,2.047,0,0,0,1.2,1.366.068.068,0,0,1,.042.088h0a.073.073,0,0,1-.094.042Z" transform="translate(-197.492 -158.775)" fill="#263238"/>
    <path id="Path_4161" data-name="Path 4161" d="M301.744,170.965a.114.114,0,0,0,.068.042.135.135,0,0,0,.151-.125h0a1.371,1.371,0,0,0-.483-1.169.135.135,0,0,0-.192.026h0a.14.14,0,0,0,.031.192h0a1.138,1.138,0,0,1,.364.935.146.146,0,0,0,.062.1Z" transform="translate(-202.226 -156.529)" fill="#263238"/>
    <path id="Path_4162" data-name="Path 4162" d="M284.891,162.861c.572-2.567,1.491-4.442,2.411-4.868s3.2,2.722,3.2,2.722a1.039,1.039,0,0,0-1.7.6,3.479,3.479,0,0,1-2.463,2.567s.192-.426-.208-.52-1.408,2.13-1.252,3.512A7.3,7.3,0,0,1,284.891,162.861Z" transform="translate(-194.232 -150.893)" fill="#263238"/>
    <path id="Path_4163" data-name="Path 4163" d="M283.995,166.085a2.759,2.759,0,0,0,.681,2c.639.722,1.486.275,1.746-.608.223-.785.177-2.125-.686-2.515a1.231,1.231,0,0,0-1.74,1.127Z" transform="translate(-193.927 -154.206)" fill="#e4897b"/>
    <path id="Path_4164" data-name="Path 4164" d="M288.24,158.724a6.455,6.455,0,0,1,5.289-1.8c4.276.358,3.7,6.286,2.977,6.541-.566.094-.125-2.509-.733-2.265-.468.348-.468.623-.956.577-.275,0-.6-.613-.93-1.262-.639-.665-2.1,1.465-3.19,1.907C289.71,162.147,288.884,160.069,288.24,158.724Z" transform="translate(-195.97 -150.387)" fill="#263238"/>
    <path id="Path_4165" data-name="Path 4165" d="M248.8,228.343c-.3,4.915.327,11.144,1.87,14.843l13.061-.821,4.588-1.33c-.862-.888-2.832-5.569-1.491-12.905Z" transform="translate(-176.986 -184.61)" fill="#053888"/>
    <g id="Group_1029" data-name="Group 1029" transform="translate(71.743 43.52)" opacity="0.3">
      <path id="Path_4166" data-name="Path 4166" d="M248.8,228.343c-.3,4.915.327,11.144,1.87,14.843l13.061-.821,4.588-1.33c-.966-1.039-2.754-5.564-1.491-12.905Z" transform="translate(-248.729 -228.13)" fill="#fff"/>
    </g>
    <path id="Path_4167" data-name="Path 4167" d="M277.61,253.219l.722-2.5,2.551,1.553Z" transform="translate(-190.862 -195.464)" opacity="0.2"/>
    <path id="Path_4168" data-name="Path 4168" d="M286.279,170.552l-.166,1.216a2.192,2.192,0,0,0,.135,1.112l.078.192a2.187,2.187,0,0,0,1.7,1.351l.785.119v.369l-1.039-.2a2.2,2.2,0,0,1-1.611-1.314l-.182-.442a2.2,2.2,0,0,1-.125-1.252l.234-1.216Z" transform="translate(-194.804 -156.917)" fill="#263238"/>
    <path id="Path_4169" data-name="Path 4169" d="M286.279,170.552l-.166,1.216a2.192,2.192,0,0,0,.135,1.112l.078.192a2.187,2.187,0,0,0,1.7,1.351l.785.119v.369l-1.039-.2a2.2,2.2,0,0,1-1.611-1.314l-.182-.442a2.2,2.2,0,0,1-.125-1.252l.234-1.216Z" transform="translate(-194.804 -156.917)" fill="#fff" opacity="0.2"/>
    <rect id="Rectangle_1143" data-name="Rectangle 1143" width="1.159" height="0.977" rx="0.488" transform="translate(93.746 17.408)" fill="#263238"/>
    <rect id="Rectangle_1144" data-name="Rectangle 1144" width="1.065" height="1.792" rx="0.533" transform="translate(90.878 12.01)" fill="#263238"/>
    <path id="Path_4170" data-name="Path 4170" d="M290.811,191.64s2.364,11.57,3.98,13.893S305.031,216,305.031,216l-1.47,1.839s-12.064-7.726-12.916-8.832S284,197.022,284,197.022Z" transform="translate(-193.932 -167.078)" fill="#fff" opacity="0.15"/>
    <path id="Path_4171" data-name="Path 4171" d="M288.833,207.41l1.9,5.746-2.385-4.343Z" transform="translate(-196.022 -174.655)" opacity="0.2"/>
    <path id="Path_4172" data-name="Path 4172" d="M248.69,207.919l17.825,1.133s2.078-16.277,7.793-21.493l-2.935-2.416-7.793-2.7a34.852,34.852,0,0,0-6.318.39,24.337,24.337,0,0,0-1.974,2.816,41.638,41.638,0,0,0-3.034,5.985,48.457,48.457,0,0,0-3.564,16.288Z" transform="translate(-176.967 -162.654)" fill="#053888" style="isolation: isolate"/>
    <path id="Path_4173" data-name="Path 4173" d="M272.265,216.915l-5.715-4.052c-1.039-1-3.938-7.954-6.11-12.562l12.178,14.672Z" transform="translate(-182.613 -171.239)" opacity="0.2"/>
    <path id="Path_4174" data-name="Path 4174" d="M271.93,182.5h.655l11.586,4.021.483.395h0a1.559,1.559,0,0,1-.8.857l-.67.322C278.933,186.547,274.974,185.061,271.93,182.5Z" transform="translate(-188.133 -162.687)" fill="#263238" opacity="0.2"/>
    <path id="Path_4175" data-name="Path 4175" d="M267.11,187.6s3.226,11.248,4.842,13.57,12.537,13.014,12.537,13.014l-1.746,1.969s-14.5-9.721-15.352-10.838-7.055-11.851-7.055-11.851C258.673,188.89,264.7,181.752,267.11,187.6Z" transform="translate(-182.425 -164.079)" fill="#053888"/>
    <path id="Path_4176" data-name="Path 4176" d="M267.11,187.6s3.226,11.248,4.842,13.57,12.537,13.014,12.537,13.014l-1.746,1.969s-14.5-9.721-15.352-10.838-7.055-11.851-7.055-11.851C258.673,188.89,264.7,181.752,267.11,187.6Z" transform="translate(-182.425 -164.079)" fill="#fff" opacity="0.15"/>
    <path id="Path_4177" data-name="Path 4177" d="M263.57,195.427l1.185,2.431c.52-1.953,1.455-3.117,2.847-3.439l-1.382-2.78a6.125,6.125,0,0,0-2.65,3.787Z" transform="translate(-184.117 -167.078)" fill="#053888"/>
    <g id="Group_1030" data-name="Group 1030" transform="translate(59.175 70.141)" opacity="0.2">
      <path id="Path_4178" data-name="Path 4178" d="M235.72,281.646l-.478,7.507-6.468-2.115a.686.686,0,0,0-.883.52l-.572,2.494a1.039,1.039,0,0,1-.987.785h-.6a.712.712,0,0,1-.712-.675l-.478-10.344a.426.426,0,0,1,.52-.436Z" transform="translate(-224.539 -279.37)" fill="#fff"/>
    </g>
    <path id="Path_4179" data-name="Path 4179" d="M296.548,231.88l-4.338,4.4,6.094,2.759,1.4,3.2a.405.405,0,0,0,.655.125l3.029-2.982a.374.374,0,0,0-.026-.561l-2.832-2.354Z" transform="translate(-197.877 -186.412)" fill="#053888"/>
    <path id="Path_4180" data-name="Path 4180" d="M296.548,231.88l-4.338,4.4,6.094,2.759,1.4,3.2a.405.405,0,0,0,.655.125l3.029-2.982a.374.374,0,0,0-.026-.561l-2.832-2.354Z" transform="translate(-197.877 -186.412)" fill="#fff" opacity="0.3"/>
    <path id="Path_4181" data-name="Path 4181" d="M308.92,233.346l4.343-4.806,3.855,4.452,2.644,1.34a.307.307,0,0,1,.12.431l-.073.125-4.489,1.143-.322-.384Z" transform="translate(-205.906 -184.807)" fill="#053888"/>
    <g id="Group_1031" data-name="Group 1031" transform="translate(103.015 43.733)" opacity="0.3">
      <path id="Path_4182" data-name="Path 4182" d="M308.92,233.346l4.343-4.806,3.855,4.452,2.644,1.34a.307.307,0,0,1,.12.431l-.073.125-4.489,1.143-.322-.384Z" transform="translate(-308.92 -228.54)" fill="#fff"/>
    </g>
    <path id="Path_4183" data-name="Path 4183" d="M291.5,160.976a9.248,9.248,0,1,0-17.638,3.876l-.374-.3a2.792,2.792,0,0,0-1.33,2.722,33.12,33.12,0,0,0,11.274,5.5,3.824,3.824,0,0,0,1.33-2.722l-.39-.083A9.248,9.248,0,0,0,291.5,160.976Zm-7.793,7.694a6.7,6.7,0,1,1,.021,0Z" transform="translate(-188.242 -147.896)" fill="#053888"/>
    <path id="Path_4184" data-name="Path 4184" d="M291.5,160.976a9.248,9.248,0,1,0-17.638,3.876l-.374-.3a2.792,2.792,0,0,0-1.33,2.722,33.12,33.12,0,0,0,11.274,5.5,3.824,3.824,0,0,0,1.33-2.722l-.39-.083A9.248,9.248,0,0,0,291.5,160.976Zm-7.793,7.694a6.7,6.7,0,1,1,.021,0Z" transform="translate(-188.242 -147.896)" fill="#fff" opacity="0.3"/>
    <path id="Path_4185" data-name="Path 4185" d="M275.445,172.849l2.8,1.808a8.608,8.608,0,0,1-3.5-6.707,8.687,8.687,0,0,0,.7,4.9Z" transform="translate(-189.44 -155.696)" opacity="0.2"/>
    <path id="Path_4186" data-name="Path 4186" d="M296,153.9a9.424,9.424,0,0,1,6.234,5.554,9.96,9.96,0,0,0-5.273-5.814Z" transform="translate(-199.698 -148.821)" fill="#fff" opacity="0.2"/>
    <path id="Path_4187" data-name="Path 4187" d="M295.2,152.84l-.92.364-.8-.145.208-.629a3.284,3.284,0,0,1,1.512.41Z" transform="translate(-198.487 -148.239)" fill="#fff" opacity="0.2"/>
    <path id="Path_4188" data-name="Path 4188" d="M245.585,285.38l-.395,5.782.327.088.442-5.834Z" transform="translate(-175.286 -212.117)" fill="#263238" opacity="0.2"/>
  </g>
</svg>
