<svg xmlns="http://www.w3.org/2000/svg" width="27.074" height="19.652" viewBox="0 0 27.074 19.652">
  <g id="Group_997" data-name="Group 997" transform="translate(-773.985 -442.875)">
    <path id="Path_74" data-name="Path 74" d="M5.683,14.35a1.691,1.691,0,0,1-.9-3.124L9.33,6.683a1.691,1.691,0,0,1,2.391,2.391l-1.9,1.9H22.589a1.691,1.691,0,0,1,0,3.381H5.683Z" transform="translate(769.993 436.688)" fill="#3382fa"/>
    <path id="Path_75" data-name="Path 75" d="M26.6,12.984a1.691,1.691,0,0,1,.9,3.124l-4.543,4.543a1.691,1.691,0,0,1-2.391-2.391l1.9-1.9H9.7a1.691,1.691,0,1,1,0-3.381H26.6Z" transform="translate(772.765 441.381)" fill="#3382fa"/>
  </g>
</svg>
