<svg xmlns="http://www.w3.org/2000/svg" width="21" height="24" viewBox="0 0 21 24">
  <g id="stopwatch" transform="translate(-27.706)">
    <path id="Path_2196" data-name="Path 2196" d="M209.5,166.235h-1.706v5.471l3.66,3.661,1.206-1.206L209.5,171Z" transform="translate(-170.681 -157.856)" fill="#fff"/>
    <path id="Path_2197" data-name="Path 2197" d="M48.706,6.879,44.827,3l-1.4,1.4a10.412,10.412,0,0,0-4.471-1.364V1.5h2.251V0h-6V1.5h2.249V3.038A10.412,10.412,0,0,0,32.987,4.4L31.585,3,27.706,6.879l1.4,1.4a10.5,10.5,0,1,0,18.2,0l1.4-1.4ZM38.206,22.5a9,9,0,1,1,9-9A9.01,9.01,0,0,1,38.206,22.5Z" fill="#fff"/>
  </g>
</svg>
