<svg xmlns="http://www.w3.org/2000/svg" xmlns:xlink="http://www.w3.org/1999/xlink" width="132" height="132" viewBox="0 0 132 132">
  <defs>
    <clipPath id="clip-path">
      <rect id="Rectangle_1162" data-name="Rectangle 1162" width="89.761" height="92.755" fill="none"/>
    </clipPath>
    <clipPath id="clip-path-2">
      <path id="Intersection_1" data-name="Intersection 1" d="M3.606,49.117,0,4.731,22.53.224,26.583,0,53.4,2.928,47.544,49.117ZM22.58.494.291,4.955,3.845,48.863H47.32l5.8-45.705L26.578.27Z" fill="none"/>
    </clipPath>
    <clipPath id="clip-path-3">
      <path id="Intersection_2" data-name="Intersection 2" d="M1.8,11.041C1.573,8.79,0,0,0,0,8.784,6.086,14.626,2.032,14.626,2.032s-.026,8.78-.453,10.812S11.488,23.838,9.589,26.685a.547.547,0,0,1-.457.287C7.006,26.972,2.015,13.123,1.8,11.041Zm.239-.026c.219,2.195,5.047,15.206,7.007,15.7a.341.341,0,0,0,.321-.163c1.859-2.8,4.11-11.713,4.583-13.75.382-1.716.438-8.515.443-10.317C12.93,3.228,7.633,5.332.346.55.7,2.587,1.874,9.1,2.042,11.015Z" fill="none"/>
    </clipPath>
    <clipPath id="clip-path-4">
      <path id="Intersection_3" data-name="Intersection 3" d="M13.292,33.8c-3.152-.9-10.364-5.189-10.364-9.014C2.928,22.967,0,9.691,0,9.691,1.578,1.8,11.478,0,14.87,0s8.561,2.032,9.462,5.184.682,18.924.229,20.727c-.426,1.694-7.222,7.968-10.654,7.968A2.235,2.235,0,0,1,13.292,33.8ZM.259,9.686v.005c.229,1.044,2.923,13.317,2.923,15.1,0,3.646,7.073,7.878,10.185,8.769.841.239,2.154-.137,3.8-1.09,3.31-1.91,6.87-5.52,7.13-6.62.423-1.7.677-17.447-.224-20.595-.871-3.055-6.04-5-9.217-5C11.575.254,1.843,1.991.259,9.686Z" fill="none"/>
    </clipPath>
    <clipPath id="clip-path-5">
      <path id="Intersection_4" data-name="Intersection 4" d="M0,46.189,5.856,0l5.872,46.418Zm.29-.249,11.147.219L5.836,2.027Z" fill="none"/>
    </clipPath>
    <clipPath id="clip-path-6">
      <path id="Intersection_5" data-name="Intersection 5" d="M0,34.563C-.107,30.453,13.017,0,13.017,0L20.2,2.709s-5,31.39-6.2,33.855-4.013,5.327-7.639,5.673q-.225.022-.446.021C2.517,42.259.1,38.5,0,34.563Zm.239-.005a8.784,8.784,0,0,0,2.618,6.233,4.466,4.466,0,0,0,3.458,1.192c3.432-.326,6.213-3.015,7.45-5.531,1.126-2.3,5.714-30.861,6.152-33.58L13.155.326C11.963,3.107.138,30.754.24,34.558Z" fill="none"/>
    </clipPath>
  </defs>
  <g id="Group_1197" data-name="Group 1197" transform="translate(-376 -1162)">
    <circle id="Ellipse_5490" data-name="Ellipse 5490" cx="66" cy="66" r="66" transform="translate(376 1162)" fill="#5ffd9c"/>
    <g id="Active_Support-bro" data-name="Active Support-bro" transform="translate(240.1 1057.7)">
      <g id="freepik--Character--inject-5" transform="translate(150.496 123.545)">
        <g id="Group_1188" data-name="Group 1188" transform="translate(0)" clip-path="url(#clip-path)">
          <ellipse id="Ellipse_5491" data-name="Ellipse 5491" cx="13.582" cy="17.289" rx="13.582" ry="17.289" transform="translate(40.119 27.596)" fill="#263238"/>
          <path id="Path_2876" data-name="Path 2876" d="M253.781,230.862c-7.639,0-13.841-7.868-13.841-17.539s6.208-17.544,13.841-17.544,13.836,7.868,13.836,17.544S261.41,230.862,253.781,230.862Zm0-34.573c-7.354,0-13.332,7.639-13.332,17.035s5.979,17.029,13.332,17.029,13.327-7.639,13.327-17.029-5.979-17.035-13.327-17.035Z" transform="translate(-200.081 -168.438)" fill="#263238"/>
          <path id="Path_2877" data-name="Path 2877" d="M201.631,278.2c-1.248,0-2.663-1.105-3.417-1.788-1.059-.962-2.154-2.312-2.154-2.913,0-.861,10.185-31.574,11.361-35.062a.255.255,0,0,1,.178-.168.26.26,0,0,1,.234.056l3.855,3.519a.255.255,0,0,1,.081.219l-3.8,33.366a.255.255,0,0,1-.122.188c-.158.1-3.875,2.358-6.019,2.572Zm6.152-39.212c-3.208,9.676-11.127,33.611-11.2,34.543a6.876,6.876,0,0,0,1.986,2.521,5.1,5.1,0,0,0,3.224,1.65c1.838-.183,5.093-2.062,5.7-2.434l3.774-33.1Z" transform="translate(-178.547 -189.287)" fill="#263238"/>
          <path id="Path_2878" data-name="Path 2878" d="M241.339,229.694,218.81,234.2l3.606,44.387h43.938L272.21,232.4l-26.817-2.928Z" transform="translate(-189.711 -184.971)" fill="#d8b9f7"/>
          <path id="Path_2879" data-name="Path 2879" d="M266.108,278.6H222.169a.25.25,0,0,1-.25-.234l-3.611-44.387a.255.255,0,0,1,.2-.27l22.555-4.507h0l4.074-.229,26.853,2.933a.265.265,0,0,1,.173.092.26.26,0,0,1,.051.194l-5.856,46.194A.255.255,0,0,1,266.108,278.6Zm-43.7-.509h43.475l5.8-45.705-26.537-2.887-4,.224-22.29,4.461Z" transform="translate(-189.465 -184.726)" fill="#263238"/>
          <g id="Group_1182" data-name="Group 1182" transform="translate(29.099 44.499)" clip-path="url(#clip-path-2)">
            <path id="Path_2880" data-name="Path 2880" d="M225.777,300.607h43.938l1.105-8.693-.081-.423-10.6,2.312,4.624-19.464-25.442,11.178-6.167,6.167h3.855l-11.346,7.466Z" transform="translate(-222.172 -251.49)" opacity="0.3"/>
          </g>
          <path id="Path_2883" data-name="Path 2883" d="M249.345,224.8s-3.656,2-4.583,3.8S240,243.75,240,243.75l6.31,1.355-6.08,2.928,9.2,26.359,14.646-.9,9.533-27.714-5.862-2.475,5.184-2.256s-4.955-9.462-7.639-13.516S249.345,224.8,249.345,224.8Z" transform="translate(-200.11 -182.579)" fill="#d8b9f7"/>
          <path id="Path_2884" data-name="Path 2884" d="M249.2,274.4a.255.255,0,0,1-.239-.168l-9.212-26.364a.255.255,0,0,1,.132-.311l5.413-2.607-5.6-1.2a.265.265,0,0,1-.168-.117.26.26,0,0,1-.025-.2c.158-.545,3.881-13.388,4.782-15.191s4.512-3.824,4.665-3.911a.209.209,0,0,1,.1-.025c.545-.056,13.393-1.3,16.148,2.837,2.684,4.018,7.639,13.449,7.674,13.541a.239.239,0,0,1,0,.2.234.234,0,0,1-.138.148l-4.639,2.037,5.311,2.246a.26.26,0,0,1,.143.321l-9.5,27.714a.255.255,0,0,1-.224.168l-14.646.9Zm-8.892-26.481,9.07,25.972,14.259-.876L273,245.679l-5.637-2.383a.255.255,0,0,1-.158-.234.26.26,0,0,1,.153-.234l4.935-2.144c-.794-1.528-5.093-9.615-7.522-13.241-2.506-3.758-14.723-2.7-15.624-2.618-.418.234-3.606,2.037-4.41,3.667s-4.12,12.966-4.67,14.845l6.045,1.294a.255.255,0,0,1,.2.219.265.265,0,0,1-.143.26Z" transform="translate(-199.86 -182.328)" fill="#263238"/>
          <path id="Path_2885" data-name="Path 2885" d="M257.048,280.994l-.188-46.413,12.166-1.131,3.57,47.091Z" transform="translate(-208.384 -186.925)" fill="#fff"/>
          <path id="Path_2886" data-name="Path 2886" d="M256.8,281.025a.265.265,0,0,1-.178-.071.27.27,0,0,1-.076-.183l-.188-46.413a.25.25,0,0,1,.229-.255L268.755,233a.234.234,0,0,1,.188.056.265.265,0,0,1,.092.178l3.565,47.091a.26.26,0,0,1-.066.188.244.244,0,0,1-.183.081l-15.542.453Zm.066-46.439.188,45.919,15.018-.433-3.529-46.566Z" transform="translate(-208.139 -186.701)" fill="#263238"/>
          <path id="Path_2887" data-name="Path 2887" d="M253.32,211.77s1.574,8.79,1.8,11.041,6.045,18.257,7.786,15.644c1.9-2.847,4.156-11.81,4.583-13.841s.453-10.811.453-10.811S262.1,217.856,253.32,211.77Z" transform="translate(-206.647 -176.285)" fill="#fff"/>
          <path id="Path_2888" data-name="Path 2888" d="M262.2,238.754a.88.88,0,0,1-.194-.025c-2.393-.6-7.17-13.964-7.389-16.138s-1.782-10.929-1.8-11.02a.255.255,0,0,1,.4-.255c8.545,5.918,14.3,2.068,14.356,2.037a.26.26,0,0,1,.265,0,.265.265,0,0,1,.138.229c0,.356,0,8.836-.458,10.867-.509,2.21-2.714,11.041-4.639,13.928A.8.8,0,0,1,262.2,238.754Zm-8.785-26.68c.356,2.037,1.528,8.545,1.7,10.465.219,2.195,5.047,15.206,7.007,15.7a.341.341,0,0,0,.321-.163c1.859-2.8,4.11-11.713,4.583-13.75.382-1.716.438-8.515.443-10.317C266,214.753,260.7,216.856,253.417,212.074Z" transform="translate(-206.397 -176.039)" fill="#263238"/>
          <g id="Group_1183" data-name="Group 1183" transform="translate(46.673 35.485)" clip-path="url(#clip-path-3)">
            <path id="Path_2889" data-name="Path 2889" d="M267.874,219.638c.092-2.882.092-5.841.092-5.841s-5.862,4.074-14.646-2.037c0,0,.647,3.621,1.171,6.809,1.2,1.528,3.488,3.957,6.31,4.41C263.7,223.447,266.041,221.909,267.874,219.638Z" transform="translate(-253.32 -211.765)" fill="#d8b9f7"/>
            <path id="Path_2890" data-name="Path 2890" d="M267.874,219.638c.092-2.882.092-5.841.092-5.841s-5.862,4.074-14.646-2.037c0,0,.647,3.621,1.171,6.809,1.2,1.528,3.488,3.957,6.31,4.41C263.7,223.447,266.041,221.909,267.874,219.638Z" transform="translate(-253.32 -211.765)" fill="#fff" opacity="0.5"/>
          </g>
          <path id="Path_2893" data-name="Path 2893" d="M291.37,193.287s2.475-3.157,2.475.448-2.475,4.074-2.475,4.074Z" transform="translate(-225.32 -166.587)" fill="#fff"/>
          <path id="Path_2894" data-name="Path 2894" d="M291.125,197.8a.239.239,0,0,1-.163-.061.234.234,0,0,1-.092-.194v-4.507a.255.255,0,0,1,.051-.158c.219-.275,1.339-1.63,2.195-1.334.509.173.738.81.738,1.94,0,3.774-2.658,4.3-2.684,4.308Zm.255-4.675V197.2c.616-.244,1.966-1.085,1.966-3.712,0-1.192-.275-1.416-.392-1.456C292.576,191.906,291.817,192.594,291.379,193.128Z" transform="translate(-225.074 -166.342)" fill="#263238"/>
          <path id="Path_2895" data-name="Path 2895" d="M243.14,170.581s2.928,13.276,2.928,15.094c0,3.824,7.211,8.112,10.363,9.014s10.817-6.086,11.27-7.888.672-17.574-.229-20.727-6.07-5.184-9.462-5.184S244.719,162.693,243.14,170.581Z" transform="translate(-201.651 -151.316)" fill="#fff"/>
          <path id="Path_2896" data-name="Path 2896" d="M256.809,194.78a2.44,2.44,0,0,1-.687-.092c-3.056-.876-10.552-5.2-10.552-9.258,0-1.767-2.893-14.906-2.923-15.038a.377.377,0,0,1,0-.107c1.614-8.077,11.713-9.895,15.12-9.895s8.759,2.037,9.706,5.368.672,19.092.229,20.879c-.331,1.329-4.043,5-7.384,6.931A7.7,7.7,0,0,1,256.809,194.78Zm-13.653-24.444c.229,1.044,2.923,13.317,2.923,15.1,0,3.646,7.074,7.878,10.185,8.769.84.239,2.154-.138,3.8-1.09,3.31-1.91,6.87-5.52,7.13-6.62.423-1.7.677-17.447-.224-20.594-.871-3.056-6.04-5-9.217-5-3.285,0-13.017,1.737-14.6,9.431Z" transform="translate(-201.407 -151.071)" fill="#263238"/>
          <g id="Group_1185" data-name="Group 1185" transform="translate(41.489 9.574)" clip-path="url(#clip-path-4)">
            <path id="Path_2897" data-name="Path 2897" d="M258.01,160.89c-3.376,0-13.292,1.8-14.87,9.676,0,0,1.752,7.944,2.546,12.385,0-2.037.356-5.938,2.546-7.639,3.025-2.353,8.072-2.694,10.929-4.038s3.529-4.874,3.529-4.874.168,6.218,1.528,7.736,2.694,2.546,2.862,5.21.672,5.378-.672,7.568-6.9,6.386-9.416,7.226c-.387.132-.764.244-1.12.351.2.071.392.137.57.188,3.157.9,10.817-6.086,11.27-7.888s.672-17.574-.229-20.727S261.4,160.89,258.01,160.89Z" transform="translate(-243.14 -160.89)" fill="#d8b9f7"/>
            <path id="Path_2898" data-name="Path 2898" d="M256.122,216.881c-1.227-1.237-4.583-4.665-6.111-6.432a11.2,11.2,0,0,1-1.181-1.619c0,.148,0,.28,0,.372C248.861,212.028,252.792,215.1,256.122,216.881Z" transform="translate(-245.933 -184.417)" fill="#d8b9f7"/>
            <g id="Group_1184" data-name="Group 1184" transform="translate(0 0)" opacity="0.5">
              <path id="Path_2899" data-name="Path 2899" d="M258.01,160.89c-3.376,0-13.292,1.8-14.87,9.676,0,0,1.752,7.944,2.546,12.385,0-2.037.356-5.938,2.546-7.639,3.025-2.353,8.072-2.694,10.929-4.038s3.529-4.874,3.529-4.874.168,6.218,1.528,7.736,2.694,2.546,2.862,5.21.672,5.378-.672,7.568-6.9,6.386-9.416,7.226c-.387.132-.764.244-1.12.351.2.071.392.137.57.188,3.157.9,10.817-6.086,11.27-7.888s.672-17.574-.229-20.727S261.4,160.89,258.01,160.89Z" transform="translate(-243.14 -160.89)" fill="#fff"/>
              <path id="Path_2900" data-name="Path 2900" d="M256.122,216.881c-1.227-1.237-4.583-4.665-6.111-6.432a11.2,11.2,0,0,1-1.181-1.619c0,.148,0,.28,0,.372C248.861,212.028,252.792,215.1,256.122,216.881Z" transform="translate(-245.932 -184.416)" fill="#fff"/>
            </g>
          </g>
          <path id="Path_2903" data-name="Path 2903" d="M264.828,194.831c0,.631-.28,1.141-.631,1.141s-.637-.509-.637-1.141.285-1.141.637-1.141S264.828,194.2,264.828,194.831Z" transform="translate(-211.672 -167.413)" fill="#263238"/>
          <path id="Path_2904" data-name="Path 2904" d="M279.393,194.831c0,.631-.285,1.141-.637,1.141s-.637-.509-.637-1.141.285-1.141.637-1.141S279.393,194.2,279.393,194.831Z" transform="translate(-218.817 -167.413)" fill="#263238"/>
          <path id="Path_2905" data-name="Path 2905" d="M273.606,199.194a.244.244,0,0,1-.234-.163.255.255,0,0,1,.137-.331c1.019-.4,2.455-1.181,2.546-1.67.041-.188-.036-.255-.682-.4a2.546,2.546,0,0,1-1.278-.56c-.759-.759-.137-2.887-.061-3.127a.265.265,0,1,1,.509.148c-.244.794-.479,2.21-.066,2.623a2.169,2.169,0,0,0,1.019.418c.509.117,1.217.275,1.069,1.019-.183.937-2.414,1.869-2.857,2.037a.234.234,0,0,1-.1.005Z" transform="translate(-216.478 -166.953)" fill="#263238"/>
          <path id="Path_2906" data-name="Path 2906" d="M266.787,210.42a3.056,3.056,0,0,1-2.689-1.309.25.25,0,0,1,.071-.351.255.255,0,0,1,.351.071c1.222,1.838,4.074.759,4.074.749a.255.255,0,1,1,.188.474,6.182,6.182,0,0,1-2,.367Z" transform="translate(-211.915 -174.787)" fill="#263238"/>
          <path id="Path_2907" data-name="Path 2907" d="M259.993,190.577a.29.29,0,0,1-.092,0,.255.255,0,0,1-.148-.331,2.724,2.724,0,0,1,1.365-1.411,2.984,2.984,0,0,1,2.348.081.255.255,0,0,1-.188.474,2.5,2.5,0,0,0-1.956-.092,2.261,2.261,0,0,0-1.095,1.131A.244.244,0,0,1,259.993,190.577Z" transform="translate(-209.795 -164.931)" fill="#263238"/>
          <path id="Path_2908" data-name="Path 2908" d="M278.533,189.331a.27.27,0,0,1-.2-.1c-.509-.637-.973-.947-1.431-.927a1.6,1.6,0,0,0-1.085.723.26.26,0,0,1-.351.081.25.25,0,0,1-.081-.351,2.083,2.083,0,0,1,1.487-.962,2.28,2.28,0,0,1,1.864,1.125.255.255,0,0,1-.046.356.249.249,0,0,1-.153.051Z" transform="translate(-217.453 -164.52)" fill="#263238"/>
          <path id="Path_2909" data-name="Path 2909" d="M263.786,158.739c-2.231-2.546-4.583-2.393-5.989-1.844-1.9-3.208-8.2-5.755-16.3-2.663-9.462,3.606-8.336,13.3-7.883,15.1s3.606,6.534,5.632,6.758c0,0,1.8-1.579,1.8-3.152s4.283-4.731,8.561-6.086a16.775,16.775,0,0,0,7.364-4.41,7,7,0,0,0,.973,3.733c1.355,2.037,3.381,3.157,3.381,3.835s1.125,3.152,2.037,3.152.9-3.606,1.125-5.184S266.939,162.344,263.786,158.739Z" transform="translate(-196.835 -147.362)" fill="#263238"/>
          <path id="Path_2910" data-name="Path 2910" d="M238.979,176.092h-.031c-2.215-.25-5.393-5.138-5.851-6.951-.025-.112-2.516-11.372,8.046-15.395,7.8-2.974,14.259-.9,16.515,2.587,1.151-.387,3.667-.764,6.07,1.986h0c2.633,3.01,1.635,6.315,1.019,8.3a9.281,9.281,0,0,0-.3,1.146c-.056.382-.1.9-.143,1.436-.194,2.4-.387,3.967-1.237,3.967-1.12,0-2.281-2.689-2.281-3.407,0-.214-.509-.693-1.018-1.151a14.015,14.015,0,0,1-2.312-2.546,6.732,6.732,0,0,1-1.018-3.249,17.649,17.649,0,0,1-7.058,4.028C245.059,168.2,241,171.284,241,172.68c0,1.67-1.813,3.274-1.889,3.346A.255.255,0,0,1,238.979,176.092Zm9.34-23.247a19.709,19.709,0,0,0-7,1.375c-10.149,3.87-7.756,14.687-7.73,14.8.448,1.793,3.443,6.182,5.306,6.549.346-.326,1.63-1.63,1.63-2.882,0-1.767,4.41-4.96,8.739-6.33a16.322,16.322,0,0,0,7.247-4.334.26.26,0,0,1,.285-.071.255.255,0,0,1,.163.239,6.743,6.743,0,0,0,.932,3.6,13.434,13.434,0,0,0,2.236,2.444c.713.657,1.187,1.09,1.187,1.528,0,.657,1.1,2.9,1.772,2.9.448,0,.647-2.45.733-3.5.041-.55.087-1.069.143-1.467a9.488,9.488,0,0,1,.316-1.222c.6-2,1.528-5.016-.932-7.812h0c-2.261-2.582-4.543-2.22-5.7-1.772a.255.255,0,0,1-.311-.112C256.135,154.764,252.881,152.844,248.318,152.844Z" transform="translate(-196.588 -147.11)" fill="#263238"/>
          <path id="Path_2911" data-name="Path 2911" d="M240.946,185.139H240.9a.255.255,0,0,1-.2-.3,3.2,3.2,0,0,1,1.7-2.068.255.255,0,1,1,.26.438,2.712,2.712,0,0,0-1.462,1.726A.25.25,0,0,1,240.946,185.139Z" transform="translate(-200.45 -162.039)" fill="#fff"/>
          <path id="Path_2912" data-name="Path 2912" d="M247.274,174.559a.26.26,0,0,1-.239-.163.255.255,0,0,1,.148-.326,42.957,42.957,0,0,1,5.408-1.528c1.365-.316,2.658-.621,3.733-.962a12.99,12.99,0,0,0,6.32-4.828.25.25,0,0,1,.351-.081.255.255,0,0,1,.076.351,13.241,13.241,0,0,1-6.62,5.047c-1.09.346-2.393.652-3.768.973a42.927,42.927,0,0,0-5.342,1.477.29.29,0,0,1-.066.041Z" transform="translate(-203.555 -154.133)" fill="#fff"/>
          <path id="Path_2913" data-name="Path 2913" d="M239.454,169.127a.239.239,0,0,1-.143-.046.255.255,0,0,1-.071-.351c.509-.789,1.884-.733,3.937-.652a40.265,40.265,0,0,0,5-.031,20.884,20.884,0,0,0,8.8-3.188.255.255,0,0,1,.351.071.25.25,0,0,1-.066.351,21.065,21.065,0,0,1-9.049,3.275,40.264,40.264,0,0,1-5.057.031c-1.813-.071-3.122-.127-3.493.428a.25.25,0,0,1-.209.112Z" transform="translate(-199.717 -153.244)" fill="#fff"/>
          <path id="Path_2914" data-name="Path 2914" d="M293.046,176.14h0a.255.255,0,0,1-.244-.265,8.614,8.614,0,0,0-.137-1.879.25.25,0,0,1,.2-.3.255.255,0,0,1,.3.2,9.377,9.377,0,0,1,.148,2,.255.255,0,0,1-.265.244Z" transform="translate(-225.952 -157.598)" fill="#fff"/>
          <path id="Path_2915" data-name="Path 2915" d="M288.361,168.278a.25.25,0,0,1-.239-.173,6.463,6.463,0,0,0-3.972-3.906.26.26,0,0,1-.178-.316.255.255,0,0,1,.316-.173,6.86,6.86,0,0,1,4.313,4.227.255.255,0,0,1-.158.326A.23.23,0,0,1,288.361,168.278Z" transform="translate(-221.685 -152.695)" fill="#fff"/>
          <path id="Path_2916" data-name="Path 2916" d="M253.211,211.7a4.074,4.074,0,0,1-1.92-.4c-1.94-1.019-5.388-5.6-5.53-5.816a.255.255,0,0,1,.407-.306c.036.046,3.519,4.7,5.362,5.673s5.3-.382,5.337-.4a.256.256,0,0,1,.183.479A12.477,12.477,0,0,1,253.211,211.7Z" transform="translate(-202.912 -173.002)" fill="#263238"/>
          <path id="Path_2917" data-name="Path 2917" d="M267.836,215.375c0,.463-.57.845-1.268.845s-1.268-.382-1.268-.845.565-.845,1.268-.845S267.836,214.907,267.836,215.375Z" transform="translate(-212.526 -177.64)" fill="#263238"/>
          <path id="Path_2918" data-name="Path 2918" d="M239.312,176.264s-4.181-10.827,0-17.284c0,0-6.462,6.646-.759,18.807Z" transform="translate(-198.246 -150.379)" fill="#fff"/>
          <path id="Path_2919" data-name="Path 2919" d="M243.574,195.69c.382,2.546-.311,4.746-1.553,4.935s-2.546-1.721-2.933-4.262.316-4.746,1.553-4.935S243.212,193.149,243.574,195.69Z" transform="translate(-199.61 -166.296)" fill="#fff"/>
          <path id="Path_2920" data-name="Path 2920" d="M241.635,200.627c-1.329,0-2.628-1.9-3.015-4.487a7.9,7.9,0,0,1,.178-3.468c.321-1.018.886-1.655,1.589-1.757,1.4-.209,2.816,1.752,3.224,4.471a7.975,7.975,0,0,1-.178,3.468c-.326,1.019-.886,1.655-1.589,1.757A1.444,1.444,0,0,1,241.635,200.627Zm-1.018-9.217a.624.624,0,0,0-.138,0c-.509.071-.917.586-1.176,1.406a7.4,7.4,0,0,0-.158,3.239c.351,2.353,1.558,4.212,2.643,4.043.509-.071.922-.586,1.181-1.406a7.481,7.481,0,0,0,.158-3.239c-.362-2.241-1.487-4.033-2.531-4.033Z" transform="translate(-199.377 -166.043)" fill="#263238"/>
          <ellipse id="Ellipse_5492" data-name="Ellipse 5492" cx="2.017" cy="4.649" rx="2.017" ry="4.649" transform="matrix(0.989, -0.149, 0.149, 0.989, 38.341, 25.358)" fill="#fff"/>
          <path id="Path_2921" data-name="Path 2921" d="M240.494,200.51a2.217,2.217,0,0,1-1.691-1.263,8.688,8.688,0,0,1-1.11-3.259c-.412-2.725.26-5,1.528-5.189s2.546,1.793,2.979,4.512a8.8,8.8,0,0,1-.1,3.443c-.275,1.019-.779,1.65-1.421,1.747Zm-1.12-9.217h-.087c-.825.122-1.477,2.037-1.09,4.583a8.26,8.26,0,0,0,1.019,3.056c.448.708.937,1.08,1.36,1.019s.789-.565,1.018-1.375a8.234,8.234,0,0,0,.092-3.234C241.314,192.932,240.194,191.292,239.374,191.292Z" transform="translate(-198.919 -165.987)" fill="#263238"/>
          <path id="Path_2922" data-name="Path 2922" d="M318.026,235.22l5.872,46.418-11.728-.229Z" transform="translate(-235.527 -187.793)" fill="#d8b9f7"/>
          <path id="Path_2923" data-name="Path 2923" d="M323.675,281.648h0l-11.713-.229a.247.247,0,0,1-.244-.285l5.851-46.189a.255.255,0,0,1,.255-.224h0a.255.255,0,0,1,.25.224l5.872,46.413a.245.245,0,0,1-.061.2A.255.255,0,0,1,323.675,281.648Zm-11.438-.733,11.148.219L317.783,237Z" transform="translate(-235.304 -187.548)" fill="#263238"/>
          <g id="Group_1186" data-name="Group 1186" transform="translate(76.643 47.427)" clip-path="url(#clip-path-5)">
            <path id="Path_2924" data-name="Path 2924" d="M321.225,281.853l-6.106,3.667.1-6.86-3.05,24.067,11.728.229-.962-7.583-5.118.168,4.543-4.721-.036-.311-6.243,2.139,5.648-6.839Z" transform="translate(-312.17 -256.538)" opacity="0.3"/>
          </g>
          <path id="Path_2927" data-name="Path 2927" d="M241.221,208.1s1.731-.606,2.108.061a16.691,16.691,0,0,1,.8,3.977c-.01.412-.153.789-.937.509s-2.037-2.831-2.037-2.831Z" transform="translate(-200.679 -174.359)" fill="#fff"/>
          <path id="Path_2928" data-name="Path 2928" d="M243.444,212.794a1.624,1.624,0,0,1-.55-.112c-.835-.311-1.956-2.516-2.169-2.959a.3.3,0,0,1,0-.117l.051-1.711a.255.255,0,0,1,.168-.234c.326-.112,1.956-.637,2.414.178a16.613,16.613,0,0,1,.84,4.11.891.891,0,0,1-.316.728.738.738,0,0,1-.438.117Zm-2.236-3.239c.474.952,1.37,2.465,1.859,2.648.351.127.474.071.509.051a.478.478,0,0,0,.1-.321,17.648,17.648,0,0,0-.774-3.845c-.168-.306-1.018-.188-1.635,0Z" transform="translate(-200.463 -174.136)" fill="#263238"/>
          <path id="Path_2929" data-name="Path 2929" d="M222.435,212.969s1.6-10.312,1.64-11.433,1.528-2.037,2.241-2.312a32.071,32.071,0,0,1,5.22-.127c.433.015,2.175-.076,2.159.509s-.168.835-1.625,1.069-4.94.418-4.94.418l-.912,1.375,4.324.825s1.019.448.835,1.146-.687,3.758-.7,4.176-.458.687-1.492,1.36a5.26,5.26,0,0,1-2.037.779s.081,2.1-.509,2.363l-1.472.657-.2,12.034-6.646-.754Z" transform="translate(-189.471 -170.044)" fill="#fff"/>
          <path id="Path_2930" data-name="Path 2930" d="M224.745,225.753h-.031l-6.62-.754a.26.26,0,0,1-.188-.117.255.255,0,0,1,0-.219l4.115-12.039c.081-.509,1.6-10.312,1.63-11.377.036-1.283,1.67-2.287,2.409-2.546a29.523,29.523,0,0,1,5.311-.143h.229a3.318,3.318,0,0,1,2.037.372.509.509,0,0,1,.148.372c0,.8-.418,1.085-1.838,1.319-1.314.214-4.186.377-4.838.412l-.626.947,3.947.754h.056c.046,0,1.192.545.978,1.436-.178.749-.682,3.758-.693,4.13,0,.509-.474.83-1.472,1.477l-.132.087a5.673,5.673,0,0,1-1.93.779c0,.693-.051,2.108-.662,2.383l-1.319.591-.2,11.871a.265.265,0,0,1-.087.188A.255.255,0,0,1,224.745,225.753Zm-6.294-1.2,6.045.693.2-11.754a.255.255,0,0,1,.153-.224l1.467-.657c.255-.117.392-1.212.356-2.124a.255.255,0,0,1,.224-.265,4.975,4.975,0,0,0,1.94-.738l.137-.087c.871-.57,1.227-.81,1.237-1.064,0-.469.555-3.565.708-4.232.1-.428-.509-.774-.667-.84l-4.293-.82a.26.26,0,0,1-.188-.153.265.265,0,0,1,0-.239l.906-1.375a.27.27,0,0,1,.2-.112c.031,0,3.483-.178,4.909-.412s1.4-.453,1.411-.83c-.046-.076-.321-.219-1.64-.219h-.275a30.538,30.538,0,0,0-5.123.112c-.687.244-2.037,1.131-2.073,2.083-.036,1.12-1.574,11.041-1.64,11.463v.041Zm3.774-11.845Z" transform="translate(-189.256 -169.781)" fill="#263238"/>
          <path id="Path_2931" data-name="Path 2931" d="M237.976,209.827h-.046l-5.245-.942a.259.259,0,1,1,.092-.509l5.245.947a.256.256,0,1,1-.046.509Z" transform="translate(-196.416 -174.618)" fill="#263238"/>
          <path id="Path_2932" data-name="Path 2932" d="M237.7,214.342h-.056l-4.318-1.049a.261.261,0,0,1,.117-.509l4.324,1.049a.244.244,0,0,1,.183.306A.25.25,0,0,1,237.7,214.342Z" transform="translate(-196.735 -176.779)" fill="#263238"/>
          <path id="Path_2933" data-name="Path 2933" d="M234.966,220.458a.244.244,0,0,1-.214-.117c-.183-.285-.6-.983-.458-1.365a.407.407,0,0,1,.27-.255c.4-.122,1.339-.362,1.339-.362l.127.509s-.835.214-1.258.336a2.826,2.826,0,0,0,.407.876.255.255,0,0,1-.076.351A.285.285,0,0,1,234.966,220.458Z" transform="translate(-197.296 -179.519)" fill="#263238"/>
          <path id="Path_2934" data-name="Path 2934" d="M206.946,237.87l7.18,2.709s-5,31.39-6.2,33.855-4.013,5.327-7.639,5.673-6.249-3.565-6.355-7.674S206.946,237.87,206.946,237.87Z" transform="translate(-177.501 -189.094)" fill="#d8b9f7"/>
          <path id="Path_2935" data-name="Path 2935" d="M199.561,280.12a5.052,5.052,0,0,1-3.376-1.339,9.342,9.342,0,0,1-2.786-6.62c-.112-4.1,12.517-33.427,13.052-34.675a.255.255,0,0,1,.326-.132l7.18,2.7a.25.25,0,0,1,.163.275c-.2,1.283-5.021,31.462-6.233,33.926-1.294,2.648-4.227,5.474-7.858,5.821A2.057,2.057,0,0,1,199.561,280.12Zm7.262-42.187c-1.192,2.781-13.017,30.428-12.915,34.232a8.785,8.785,0,0,0,2.618,6.233,4.466,4.466,0,0,0,3.458,1.192c3.432-.326,6.213-3.015,7.45-5.53,1.125-2.3,5.714-30.861,6.152-33.58Z" transform="translate(-177.241 -188.831)" fill="#263238"/>
          <g id="Group_1187" data-name="Group 1187" transform="translate(16.428 48.776)" clip-path="url(#clip-path-6)">
            <path id="Path_2936" data-name="Path 2936" d="M201.018,282.634a32.59,32.59,0,0,1-5.464,2.19c-.647,1.879-1.141,3.473-1.406,4.614l3.4-.428a37.886,37.886,0,0,0,7.13-1.528s-5.6,3.468-10.6,4.049h-.117c.331,3.86,2.857,7.4,6.32,7.074,3.641-.346,6.447-3.213,7.639-5.673.591-1.212,2.1-9.391,3.478-17.4a59.584,59.584,0,0,1-10.379,7.1Z" transform="translate(-193.944 -256.352)" opacity="0.3"/>
          </g>
        </g>
      </g>
      <g id="freepik--speech-bubble--inject-5" transform="translate(138.9 104.3)">
        <path id="Path_2939" data-name="Path 2939" d="M187.33,134.794l-4.665-6.457a3.239,3.239,0,0,0,3.229-3.229V107.529a3.244,3.244,0,0,0-3.229-3.229H142.129a3.239,3.239,0,0,0-3.229,3.229v17.579a3.234,3.234,0,0,0,3.229,3.229h35.052Z" transform="translate(-138.9 -104.3)" fill="#144ee5"/>
        <path id="Path_2940" data-name="Path 2940" d="M161.542,124.586a1.976,1.976,0,1,0-1.976,1.976A1.976,1.976,0,0,0,161.542,124.586Z" transform="translate(-148.072 -113.286)" fill="#fff"/>
        <path id="Path_2941" data-name="Path 2941" d="M184.432,124.586a1.971,1.971,0,1,0-.575,1.4,1.976,1.976,0,0,0,.575-1.4Z" transform="translate(-159.305 -113.286)" fill="#fff"/>
        <path id="Path_2942" data-name="Path 2942" d="M207.332,124.586a1.976,1.976,0,1,0-1.976,1.976A1.976,1.976,0,0,0,207.332,124.586Z" transform="translate(-170.543 -113.286)" fill="#fff"/>
      </g>
    </g>
  </g>
</svg>
