<svg xmlns="http://www.w3.org/2000/svg" width="10.019" height="17.748" viewBox="0 0 10.019 17.748">
  <g id="Group_1112" data-name="Group 1112" transform="translate(-540 -940.376)">
    <path id="Icon_ionic-ios-arrow-down" data-name="Icon ionic-ios-arrow-down" d="M11.2,12.973l3.788,3.791a.713.713,0,0,0,1.011,0,.722.722,0,0,0,0-1.014l-4.292-4.3a.715.715,0,0,0-.987-.021L6.4,15.747a.716.716,0,0,0,1.011,1.014Z" transform="translate(533.813 929.129)" fill="#c8c4cc"/>
    <path id="Icon_ionic-ios-arrow-down-2" data-name="Icon ionic-ios-arrow-down" d="M11.2,15.248l3.788-3.791a.713.713,0,0,1,1.011,0,.722.722,0,0,1,0,1.014l-4.292,4.3a.715.715,0,0,1-.987.021L6.4,12.474A.716.716,0,0,1,7.407,11.46Z" transform="translate(533.813 941.149)" fill="#c8c4cc"/>
  </g>
</svg>
