<svg xmlns="http://www.w3.org/2000/svg" width="28" height="21.877" viewBox="0 0 28 21.877">
  <path id="Icon_awesome-exchange-alt" data-name="Icon awesome-exchange-alt" d="M0,10.062V9.187A1.312,1.312,0,0,1,1.312,7.875H21V5.25a1.313,1.313,0,0,1,2.241-.928L27.616,8.7a1.313,1.313,0,0,1,0,1.856l-4.375,4.375A1.313,1.313,0,0,1,21,14V11.375H1.312A1.312,1.312,0,0,1,0,10.062Zm26.687,8.312H7V15.75a1.313,1.313,0,0,0-2.241-.928L.384,19.2a1.313,1.313,0,0,0,0,1.856l4.375,4.375A1.313,1.313,0,0,0,7,24.5V21.875H26.687A1.312,1.312,0,0,0,28,20.562v-.875A1.312,1.312,0,0,0,26.687,18.375Z" transform="translate(0 -3.936)" fill="#c8c4cc"/>
</svg>
