<svg xmlns="http://www.w3.org/2000/svg" width="28.912" height="28.912" viewBox="0 0 28.912 28.912">
  <path id="Icon_metro-facebook" data-name="Icon metro-facebook" d="M26.665,1.928H7.389A4.819,4.819,0,0,0,2.571,6.747V26.021A4.819,4.819,0,0,0,7.389,30.84h9.638V18.191H13.413V14.577h3.614V11.867a4.518,4.518,0,0,1,4.518-4.518h4.518v3.614H21.544a.9.9,0,0,0-.9.9v2.711H25.61l-.9,3.614H20.641V30.84h6.024a4.819,4.819,0,0,0,4.818-4.819V6.747a4.819,4.819,0,0,0-4.818-4.819Z" transform="translate(-2.571 -1.928)" fill="#fff"/>
</svg>
