<svg xmlns="http://www.w3.org/2000/svg" width="30" height="30" viewBox="0 0 30 30">
  <path id="Subtraction_2" data-name="Subtraction 2" d="M0,30V3A3,3,0,0,1,3,0H27a3,3,0,0,1,3,3V21a3,3,0,0,1-3,3H6L0,30ZM14.922,15.742A1.228,1.228,0,1,0,16.2,16.969,1.237,1.237,0,0,0,14.922,15.742Zm.156-7.3a1.334,1.334,0,0,1,1.485,1.282c0,.732-.295,1.119-1.313,1.726a2.4,2.4,0,0,0-1.406,2.562l.015.454H15.93v-.414c0-.77.285-1.146,1.327-1.751A2.918,2.918,0,0,0,18.93,9.648c0-1.808-1.491-3.023-3.711-3.023-2.3,0-3.757,1.252-3.8,3.266h2.117A1.454,1.454,0,0,1,15.078,8.438Z" fill="#b2b0b4"/>
</svg>
