<svg xmlns="http://www.w3.org/2000/svg" width="55" height="38.5" viewBox="0 0 55 38.5">
  <path id="Icon_awesome-users" data-name="Icon awesome-users" d="M8.25,18.75a5.5,5.5,0,1,0-5.5-5.5A5.505,5.505,0,0,0,8.25,18.75Zm38.5,0a5.5,5.5,0,1,0-5.5-5.5A5.505,5.505,0,0,0,46.75,18.75ZM49.5,21.5H44a5.484,5.484,0,0,0-3.876,1.6,12.57,12.57,0,0,1,6.454,9.4H52.25A2.747,2.747,0,0,0,55,29.75V27A5.505,5.505,0,0,0,49.5,21.5Zm-22,0a9.625,9.625,0,1,0-9.625-9.625A9.62,9.62,0,0,0,27.5,21.5Zm6.6,2.75h-.713a13.289,13.289,0,0,1-11.773,0H20.9a9.9,9.9,0,0,0-9.9,9.9v2.475a4.126,4.126,0,0,0,4.125,4.125h24.75A4.126,4.126,0,0,0,44,36.625V34.15A9.9,9.9,0,0,0,34.1,24.25ZM14.876,23.1A5.484,5.484,0,0,0,11,21.5H5.5A5.505,5.505,0,0,0,0,27v2.75A2.747,2.747,0,0,0,2.75,32.5H8.413A12.6,12.6,0,0,1,14.876,23.1Z" transform="translate(0 -2.25)" fill="#c662f2"/>
</svg>
