<svg xmlns="http://www.w3.org/2000/svg" width="192.912" height="28.912" viewBox="0 0 192.912 28.912">
  <g id="Group_1096" data-name="Group 1096" transform="translate(-1022 -686.544)">
    <path id="Icon_metro-facebook" data-name="Icon metro-facebook" d="M26.665,1.928H7.389A4.819,4.819,0,0,0,2.571,6.747V26.021A4.819,4.819,0,0,0,7.389,30.84h9.638V18.191H13.413V14.577h3.614V11.867a4.518,4.518,0,0,1,4.518-4.518h4.518v3.614H21.544a.9.9,0,0,0-.9.9v2.711H25.61l-.9,3.614H20.641V30.84h6.024a4.819,4.819,0,0,0,4.818-4.819V6.747a4.819,4.819,0,0,0-4.818-4.819Z" transform="translate(1071.43 684.616)" fill="#fff"/>
    <path id="Icon_simple-instagram" data-name="Icon simple-instagram" d="M14.456,0C10.529,0,10.039.018,8.5.087A10.66,10.66,0,0,0,4.987.759,7.079,7.079,0,0,0,2.426,2.426,7.053,7.053,0,0,0,.759,4.987,10.628,10.628,0,0,0,.087,8.5C.014,10.039,0,10.529,0,14.456s.018,4.418.087,5.96a10.666,10.666,0,0,0,.672,3.509,7.089,7.089,0,0,0,1.667,2.561,7.069,7.069,0,0,0,2.561,1.667,10.673,10.673,0,0,0,3.509.672c1.542.072,2.032.087,5.96.087s4.418-.018,5.96-.087a10.7,10.7,0,0,0,3.509-.672,7.388,7.388,0,0,0,4.228-4.228,10.666,10.666,0,0,0,.672-3.509c.072-1.542.087-2.032.087-5.96s-.018-4.418-.087-5.96a10.691,10.691,0,0,0-.672-3.509,7.1,7.1,0,0,0-1.667-2.561A7.043,7.043,0,0,0,23.925.759,10.635,10.635,0,0,0,20.416.087C18.874.014,18.383,0,14.456,0Zm0,2.6c3.859,0,4.319.019,5.843.086a7.965,7.965,0,0,1,2.683.5,4.757,4.757,0,0,1,2.744,2.743,7.982,7.982,0,0,1,.5,2.683c.069,1.525.084,1.983.084,5.843s-.018,4.319-.089,5.843a8.135,8.135,0,0,1-.507,2.683,4.59,4.59,0,0,1-1.083,1.665,4.51,4.51,0,0,1-1.662,1.079,8.04,8.04,0,0,1-2.692.5c-1.535.069-1.987.084-5.854.084s-4.32-.018-5.854-.089a8.2,8.2,0,0,1-2.694-.507,4.477,4.477,0,0,1-1.661-1.083,4.389,4.389,0,0,1-1.084-1.662,8.2,8.2,0,0,1-.506-2.692c-.054-1.518-.073-1.987-.073-5.835s.019-4.32.073-5.856a8.2,8.2,0,0,1,.506-2.691A4.285,4.285,0,0,1,4.212,4.227,4.276,4.276,0,0,1,5.873,3.145a8,8,0,0,1,2.676-.507c1.536-.054,1.988-.072,5.854-.072l.054.036Zm0,4.431a7.423,7.423,0,1,0,7.423,7.423A7.423,7.423,0,0,0,14.456,7.033Zm0,12.242a4.819,4.819,0,1,1,4.819-4.819A4.817,4.817,0,0,1,14.456,19.275ZM23.908,6.74a1.735,1.735,0,1,1-1.735-1.734A1.736,1.736,0,0,1,23.908,6.74Z" transform="translate(1022 686.544)" fill="#fff"/>
    <path id="Icon_awesome-twitter" data-name="Icon awesome-twitter" d="M31.939,10.586c.023.316.023.632.023.949,0,9.645-7.341,20.758-20.758,20.758A20.617,20.617,0,0,1,0,29.018a15.093,15.093,0,0,0,1.762.09,14.611,14.611,0,0,0,9.058-3.117A7.309,7.309,0,0,1,4,20.931a9.2,9.2,0,0,0,1.378.113A7.716,7.716,0,0,0,7.3,20.8a7.3,7.3,0,0,1-5.85-7.16v-.09a7.348,7.348,0,0,0,3.3.926A7.307,7.307,0,0,1,2.485,4.713a20.738,20.738,0,0,0,15.043,7.635,8.236,8.236,0,0,1-.181-1.671A7.3,7.3,0,0,1,29.974,5.685,14.364,14.364,0,0,0,34.6,3.923,7.276,7.276,0,0,1,31.4,7.943a14.626,14.626,0,0,0,4.2-1.129,15.683,15.683,0,0,1-3.659,3.772Z" transform="translate(1127 683.163)" fill="#fff"/>
    <path id="Icon_awesome-linkedin" data-name="Icon awesome-linkedin" d="M26.847,2.25H2.059A2.074,2.074,0,0,0,0,4.335V29.078a2.074,2.074,0,0,0,2.059,2.085H26.847a2.08,2.08,0,0,0,2.065-2.085V4.335A2.08,2.08,0,0,0,26.847,2.25ZM8.738,27.032H4.453v-13.8H8.745v13.8ZM6.6,11.35A2.485,2.485,0,1,1,9.08,8.865,2.486,2.486,0,0,1,6.6,11.35ZM24.8,27.032H20.516V20.32c0-1.6-.032-3.659-2.226-3.659-2.233,0-2.575,1.742-2.575,3.543v6.828H11.429v-13.8H15.54v1.884H15.6a4.514,4.514,0,0,1,4.059-2.226c4.337,0,5.144,2.859,5.144,6.576Z" transform="translate(1186 684.294)" fill="#fff"/>
  </g>
</svg>
