<svg xmlns="http://www.w3.org/2000/svg" width="28.912" height="28.912" viewBox="0 0 28.912 28.912">
  <path id="Icon_awesome-linkedin" data-name="Icon awesome-linkedin" d="M26.847,2.25H2.059A2.074,2.074,0,0,0,0,4.335V29.078a2.074,2.074,0,0,0,2.059,2.085H26.847a2.08,2.08,0,0,0,2.065-2.085V4.335A2.08,2.08,0,0,0,26.847,2.25ZM8.738,27.032H4.453v-13.8H8.745v13.8ZM6.6,11.35A2.485,2.485,0,1,1,9.08,8.865,2.486,2.486,0,0,1,6.6,11.35ZM24.8,27.032H20.516V20.32c0-1.6-.032-3.659-2.226-3.659-2.233,0-2.575,1.742-2.575,3.543v6.828H11.429v-13.8H15.54v1.884H15.6a4.514,4.514,0,0,1,4.059-2.226c4.337,0,5.144,2.859,5.144,6.576Z" transform="translate(0 -2.25)" fill="#fff"/>
</svg>
