<svg xmlns="http://www.w3.org/2000/svg" width="35.598" height="28.912" viewBox="0 0 35.598 28.912">
  <path id="Icon_awesome-twitter" data-name="Icon awesome-twitter" d="M31.939,10.586c.023.316.023.632.023.949,0,9.645-7.341,20.758-20.758,20.758A20.617,20.617,0,0,1,0,29.018a15.093,15.093,0,0,0,1.762.09,14.611,14.611,0,0,0,9.058-3.117A7.309,7.309,0,0,1,4,20.931a9.2,9.2,0,0,0,1.378.113A7.716,7.716,0,0,0,7.3,20.8a7.3,7.3,0,0,1-5.85-7.16v-.09a7.348,7.348,0,0,0,3.3.926A7.307,7.307,0,0,1,2.485,4.713a20.738,20.738,0,0,0,15.043,7.635,8.236,8.236,0,0,1-.181-1.671A7.3,7.3,0,0,1,29.974,5.685,14.364,14.364,0,0,0,34.6,3.923,7.276,7.276,0,0,1,31.4,7.943a14.626,14.626,0,0,0,4.2-1.129,15.683,15.683,0,0,1-3.659,3.772Z" transform="translate(0 -3.381)" fill="#fff"/>
</svg>
